M48
METRIC
T1C0.400
T2C0.500
T3C0.600
T4C0.700
T5C0.800
T6C0.813
T7C0.900
T8C0.950
T9C1.000
T10C1.400
T11C1.500
T12C3.200
%
G90
G05
T1
X148.184Y57.061
X163.614Y150.501
X180.848Y132.08
X200.152Y112.268
X203.708Y115.824
X206.248Y104.648
X208.788Y97.536
X216.408Y100.076
T2
X85.001Y78.461
X85.001Y82.017
X114.338Y110.401
X117.894Y110.401
X161.963Y102.146
X165.519Y102.146
X108.623Y71.666
X112.179Y71.666
X97.828Y69.761
X101.384Y69.761
X132.944Y81.001
X132.944Y84.557
X167.551Y121.323
X167.551Y124.879
X131.991Y87.033
X131.991Y90.589
X170.091Y121.323
X170.091Y124.879
X108.623Y79.604
X112.179Y79.604
X98.463Y77.381
X102.019Y77.381
X167.043Y103.416
X170.599Y103.416
X134.531Y88.938
X134.531Y92.494
X177.292Y121.412
X180.848Y121.412
X126.403Y79.921
X129.959Y79.921
X167.551Y75.603
X167.551Y79.159
X181.013Y123.444
X184.569Y123.444
X198.476Y145.009
X202.032Y145.009
X108.623Y87.541
X112.179Y87.541
X97.828Y86.271
X101.384Y86.271
T3
X78.334Y70.396
X78.334Y72.936
X80.239Y61.189
X85.001Y79.921
X89.129Y42.456
X93.256Y79.921
X94.209Y75.476
X95.796Y83.096
X104.051Y80.556
X104.686Y73.571
X104.686Y77.699
X105.321Y58.966
X105.639Y97.384
X107.861Y58.966
X112.306Y65.951
X181.839Y95.479
X188.856Y82.229
X190.094Y71.031
X197.612Y137.16
X198.349Y87.224
X198.349Y117.069
X199.936Y107.861
X204.381Y91.986
X208.509Y126.276
X209.779Y45.314
X212.852Y134.112
X213.589Y151.041
X214.224Y126.911
X216.408Y134.62
T4
X80.239Y62.776
X80.239Y65.316
X80.239Y67.856
X80.239Y70.396
X80.239Y72.936
X163.233Y109.766
X168.059Y109.766
X215.481Y128.181
X218.681Y128.181
X151.041Y53.886
X153.581Y53.886
X156.121Y53.886
X158.661Y53.886
X161.201Y53.886
X151.041Y58.331
X153.581Y58.331
X156.121Y58.331
X158.661Y58.331
X161.201Y58.331
X163.741Y58.331
X166.281Y58.331
X189.141Y140.881
X191.681Y140.881
X194.221Y140.881
X196.761Y140.881
X199.301Y140.881
X207.861Y46.584
X211.061Y46.584
X104.991Y60.554
X108.191Y60.554
X98.326Y112.941
X100.876Y110.381
X103.426Y112.941
X77.724Y131.826
X77.724Y134.366
X77.724Y136.906
X77.724Y139.446
X77.724Y141.986
X176.886Y130.086
X181.712Y130.086
X88.494Y53.251
X91.034Y53.251
X93.574Y53.251
X96.114Y53.251
X98.654Y53.251
X189.141Y119.926
X191.681Y119.926
X194.221Y119.926
X196.761Y119.926
X199.301Y119.926
X171.996Y144.691
X174.536Y144.691
X177.076Y144.691
X179.616Y144.691
X182.156Y144.691
X161.074Y150.501
X161.074Y158.883
X163.614Y150.501
X163.614Y158.883
X140.621Y127.0
X149.003Y127.0
X97.701Y57.283
X97.701Y65.665
X140.621Y129.54
X149.003Y129.54
X128.181Y87.033
X128.181Y91.859
X205.74Y158.42
X205.74Y161.62
X100.241Y56.648
X100.241Y65.03
X88.481Y44.996
X91.681Y44.996
X163.614Y150.501
X163.614Y158.883
X120.212Y110.401
X128.594Y110.401
X189.141Y133.896
X191.681Y133.896
X194.221Y133.896
X196.761Y133.896
X199.301Y133.896
X162.598Y130.721
X167.424Y130.721
X201.193Y93.574
X204.394Y93.574
X198.971Y126.911
X202.171Y126.911
T5
X84.836Y122.428
X87.541Y61.062
X89.446Y74.079
X91.034Y51.219
X91.669Y46.901
X91.986Y70.396
X93.472Y130.556
X93.574Y51.029
X96.431Y97.701
X97.384Y47.536
X97.701Y71.666
X98.336Y98.844
X98.654Y51.346
X101.511Y90.081
X102.108Y151.384
X102.146Y95.796
X102.146Y97.701
X103.416Y93.891
X105.004Y45.949
X105.321Y110.401
X107.861Y68.809
X108.179Y45.949
X109.449Y65.634
X110.744Y46.228
X111.252Y136.652
X111.989Y43.726
X113.576Y64.046
X114.211Y61.824
X114.846Y54.204
X115.799Y75.794
X123.736Y104.686
X124.054Y43.726
X127.508Y138.684
X127.546Y102.146
X133.579Y43.726
X141.834Y78.016
X144.374Y89.129
X144.691Y43.726
X144.691Y92.621
X145.644Y95.161
X154.216Y43.726
X155.486Y91.986
X158.661Y113.576
X160.566Y46.266
X161.836Y91.669
X162.29Y43.726
X163.741Y43.726
X167.234Y48.806
X170.409Y53.569
X175.806Y41.821
X178.346Y55.791
X178.981Y112.776
X181.204Y52.934
X181.864Y112.268
X182.791Y146.596
X184.379Y59.601
X185.649Y56.426
X187.452Y114.808
X189.141Y131.674
X190.729Y49.441
X191.681Y142.469
X192.634Y52.616
X195.809Y62.459
X196.444Y65.316
X196.444Y67.221
X196.761Y122.466
X197.714Y50.394
X198.984Y131.039
X199.301Y48.171
X199.301Y54.839
X199.619Y44.679
X199.936Y69.126
X201.841Y91.669
X201.841Y122.466
X201.841Y138.976
X204.064Y128.499
X204.381Y48.171
X205.016Y45.631
X206.604Y94.526
X206.921Y87.224
X207.874Y55.791
X207.874Y64.999
X209.144Y89.129
X213.36Y68.58
X221.526Y68.809
X221.526Y73.889
X80.239Y62.776
X80.239Y65.316
X80.239Y67.856
X80.239Y70.396
X80.239Y72.936
X80.239Y72.936
X142.24Y124.46
X142.24Y132.08
X144.78Y124.46
X144.78Y132.08
X147.32Y124.46
X147.32Y132.08
X151.041Y53.886
X153.581Y53.886
X156.121Y53.886
X158.661Y53.886
X161.201Y53.886
X161.201Y53.886
X189.141Y140.881
X191.681Y140.881
X194.221Y140.881
X196.761Y140.881
X199.301Y140.881
X199.301Y140.881
X77.724Y131.826
X77.724Y131.826
X77.724Y134.366
X77.724Y136.906
X77.724Y139.446
X77.724Y141.986
X95.161Y59.601
X95.161Y62.141
X95.161Y64.681
X102.781Y59.601
X102.781Y62.141
X102.781Y64.681
X88.494Y53.251
X91.034Y53.251
X93.574Y53.251
X96.114Y53.251
X98.654Y53.251
X98.654Y53.251
X189.141Y119.926
X191.681Y119.926
X194.221Y119.926
X196.761Y119.926
X199.301Y119.926
X199.301Y119.926
X158.534Y151.549
X158.534Y154.089
X158.534Y156.629
X166.154Y151.549
X166.154Y154.089
X166.154Y156.629
X171.996Y144.691
X174.536Y144.691
X177.076Y144.691
X179.616Y144.691
X182.156Y144.691
X182.156Y144.691
X189.141Y133.896
X191.681Y133.896
X194.221Y133.896
X196.761Y133.896
X199.301Y133.896
X199.301Y133.896
T6
X163.741Y105.956
X163.741Y113.576
X166.281Y105.956
X166.281Y113.576
X168.821Y105.956
X168.821Y113.576
X171.361Y105.956
X171.361Y113.576
X177.076Y126.276
X177.076Y133.896
X179.616Y126.276
X179.616Y133.896
X182.156Y126.276
X182.156Y133.896
X184.696Y126.276
X184.696Y133.896
X165.011Y126.911
X165.011Y134.531
X167.551Y126.911
X167.551Y134.531
X170.091Y126.911
X170.091Y134.531
X172.631Y126.911
X172.631Y134.531
T7
X80.239Y67.856
X191.364Y90.399
X191.364Y92.939
X191.364Y95.479
X191.364Y98.019
X191.364Y100.559
X193.904Y90.399
X193.904Y92.939
X193.904Y95.479
X193.904Y98.019
X193.904Y100.559
X156.121Y53.886
X194.221Y140.881
X89.446Y87.541
X89.446Y90.081
X89.446Y92.621
X89.446Y95.161
X89.446Y97.701
X91.986Y87.541
X91.986Y90.081
X91.986Y92.621
X91.986Y95.161
X91.986Y97.701
X126.492Y61.722
X126.492Y64.262
X129.032Y61.722
X129.032Y64.262
X131.572Y61.722
X131.572Y64.262
X134.112Y61.722
X134.112Y64.262
X136.652Y61.722
X136.652Y64.262
X77.724Y136.906
X181.204Y51.664
X181.204Y54.204
X183.744Y51.664
X183.744Y54.204
X186.284Y51.664
X186.284Y54.204
X188.824Y51.664
X188.824Y54.204
X191.364Y51.664
X191.364Y54.204
X93.574Y53.251
X194.221Y119.926
X177.076Y144.691
X120.561Y73.571
X120.561Y76.111
X120.561Y78.651
X120.561Y81.191
X120.561Y83.731
X120.561Y86.271
X120.561Y88.811
X120.561Y91.351
X120.561Y93.891
X120.561Y96.431
X123.101Y72.301
X123.101Y74.841
X123.101Y77.381
X123.101Y79.921
X123.101Y82.461
X123.101Y85.001
X123.101Y87.541
X123.101Y90.081
X123.101Y92.621
X123.101Y95.161
X123.101Y97.701
X125.641Y72.301
X125.641Y97.701
X128.181Y72.301
X128.181Y97.701
X130.721Y72.301
X130.721Y97.701
X133.261Y72.301
X133.261Y97.701
X135.801Y72.301
X135.801Y97.701
X138.341Y72.301
X138.341Y97.701
X140.881Y72.301
X140.881Y97.701
X143.421Y72.301
X143.421Y97.701
X145.961Y72.301
X145.961Y97.701
X148.501Y72.301
X148.501Y97.701
X151.041Y72.301
X151.041Y97.701
X153.581Y72.301
X153.581Y97.701
X156.121Y72.301
X156.121Y97.701
X158.661Y72.301
X158.661Y97.701
X161.201Y72.301
X161.201Y97.701
X163.741Y72.301
X163.741Y97.701
X166.281Y72.301
X166.281Y97.701
X168.821Y72.301
X168.821Y97.701
X171.361Y72.301
X171.361Y74.841
X171.361Y77.381
X171.361Y79.921
X171.361Y82.461
X171.361Y85.001
X171.361Y87.541
X171.361Y90.081
X171.361Y92.621
X171.361Y95.161
X171.361Y97.701
X173.901Y73.571
X173.901Y76.111
X173.901Y78.651
X173.901Y81.191
X173.901Y83.731
X173.901Y86.271
X173.901Y88.811
X173.901Y91.351
X173.901Y93.891
X173.901Y96.431
X197.714Y59.919
X197.714Y62.459
X200.254Y59.919
X200.254Y62.459
X202.794Y59.919
X202.794Y62.459
X205.334Y59.919
X205.334Y62.459
X207.874Y59.919
X207.874Y62.459
X194.221Y133.896
X182.156Y79.286
X182.156Y81.826
X182.156Y84.366
X182.156Y86.906
X182.156Y89.446
X184.696Y79.286
X184.696Y81.826
X184.696Y84.366
X184.696Y86.906
X184.696Y89.446
T8
X107.861Y83.731
X110.401Y83.731
X112.941Y83.731
X189.141Y133.896
X191.681Y133.896
X194.221Y133.896
X196.761Y133.896
X199.301Y133.896
X201.841Y133.896
X145.961Y90.399
X148.501Y90.399
X151.041Y90.399
X140.716Y145.796
X143.256Y145.796
X145.796Y145.796
X90.081Y65.316
X90.081Y67.856
X90.081Y70.396
X107.861Y98.971
X110.401Y98.971
X112.941Y98.971
X80.239Y62.776
X80.239Y65.316
X80.239Y67.856
X80.239Y70.396
X80.239Y72.936
X80.239Y75.476
X107.861Y75.476
X110.401Y75.476
X112.941Y75.476
X107.861Y67.221
X110.401Y67.221
X112.941Y67.221
X148.844Y150.876
X151.384Y150.876
X153.924Y150.876
X151.041Y53.886
X153.581Y53.886
X156.121Y53.886
X158.661Y53.886
X161.201Y53.886
X163.741Y53.886
X189.141Y140.881
X191.681Y140.881
X194.221Y140.881
X196.761Y140.881
X199.301Y140.881
X201.841Y140.881
X107.861Y91.986
X110.401Y91.986
X112.941Y91.986
X77.724Y129.286
X77.724Y131.826
X77.724Y134.366
X77.724Y136.906
X77.724Y139.446
X77.724Y141.986
X88.494Y53.251
X91.034Y53.251
X93.574Y53.251
X96.114Y53.251
X98.654Y53.251
X101.194Y53.251
X189.141Y119.926
X191.681Y119.926
X194.221Y119.926
X196.761Y119.926
X199.301Y119.926
X201.841Y119.926
X171.996Y144.691
X174.536Y144.691
X177.076Y144.691
X179.616Y144.691
X182.156Y144.691
X184.696Y144.691
X97.701Y81.826
X100.241Y81.826
X102.781Y81.826
X155.486Y90.399
X158.026Y90.399
X160.566Y90.399
T9
X209.32Y120.109
X213.589Y152.946
X213.906Y120.561
X216.446Y120.561
X79.756Y106.172
X79.756Y108.712
X79.756Y111.252
X79.756Y113.792
X79.756Y116.332
X79.756Y118.872
X79.756Y121.412
X114.279Y107.284
X116.819Y107.284
X119.359Y107.284
X121.899Y107.284
X124.439Y107.284
X126.979Y107.284
X129.519Y107.284
X132.059Y107.284
X134.599Y107.284
X137.139Y107.284
X139.679Y107.284
X142.219Y107.284
X144.759Y107.284
X147.299Y107.284
X149.839Y107.284
X152.379Y107.284
X96.05Y100.527
X96.05Y105.035
X102.527Y100.527
X102.527Y105.035
X107.188Y148.844
X107.188Y151.384
X109.728Y148.844
X109.728Y151.384
X112.268Y148.844
X112.268Y151.384
X114.808Y148.844
X114.808Y151.384
X117.348Y148.844
X117.348Y151.384
X119.888Y148.844
X119.888Y151.384
X122.428Y148.844
X122.428Y151.384
X124.968Y148.844
X124.968Y151.384
X127.508Y148.844
X127.508Y151.384
X130.048Y148.844
X130.048Y151.384
T10
X79.921Y55.156
T11
X218.034Y68.809
X218.034Y73.889
X218.034Y78.969
X218.034Y84.049
T12
X219.456Y162.56
X219.621Y45.314
X78.74Y162.052
X204.381Y71.666
X78.334Y44.044
T0
M30
