%TF.GenerationSoftware,KiCad,Pcbnew,(5.1.4)-1*%
%TF.CreationDate,2019-12-19T22:49:59+05:30*%
%TF.ProjectId,2014_board_SPI_Pullupattiny_4,32303134-5f62-46f6-9172-645f5350495f,rev?*%
%TF.SameCoordinates,Original*%
%TF.FileFunction,Plated,1,2,PTH,Drill*%
%TF.FilePolarity,Positive*%
%FSLAX46Y46*%
G04 Gerber Fmt 4.6, Leading zero omitted, Abs format (unit mm)*
G04 Created by KiCad (PCBNEW (5.1.4)-1) date 2019-12-19 22:49:59*
%MOMM*%
%LPD*%
G04 APERTURE LIST*
%TA.AperFunction,ViaDrill*%
%ADD10C,0.400000*%
%TD*%
%TA.AperFunction,ComponentDrill*%
%ADD11C,0.500000*%
%TD*%
%TA.AperFunction,ViaDrill*%
%ADD12C,0.600000*%
%TD*%
%TA.AperFunction,ComponentDrill*%
%ADD13C,0.700000*%
%TD*%
%TA.AperFunction,ViaDrill*%
%ADD14C,0.800000*%
%TD*%
%TA.AperFunction,ComponentDrill*%
%ADD15C,0.800000*%
%TD*%
%TA.AperFunction,ComponentDrill*%
%ADD16C,0.812800*%
%TD*%
%TA.AperFunction,ComponentDrill*%
%ADD17C,0.900000*%
%TD*%
%TA.AperFunction,ComponentDrill*%
%ADD18C,0.950000*%
%TD*%
%TA.AperFunction,ViaDrill*%
%ADD19C,1.000000*%
%TD*%
%TA.AperFunction,ComponentDrill*%
%ADD20C,1.000000*%
%TD*%
%TA.AperFunction,ViaDrill*%
%ADD21C,1.400000*%
%TD*%
%TA.AperFunction,ComponentDrill*%
%ADD22C,1.500000*%
%TD*%
G04 APERTURE END LIST*
D10*
X148183600Y-57061100D03*
X163614100Y-150501300D03*
X180848000Y-132080000D03*
X200152000Y-112268000D03*
X203708000Y-115824000D03*
X206248000Y-104648000D03*
X208788000Y-97536000D03*
X216408000Y-100076000D03*
D11*
%TO.C,E$85*%
X85001100Y-78460600D03*
X85001100Y-82016600D03*
%TO.C,E$15*%
X114338100Y-110401100D03*
X117894100Y-110401100D03*
%TO.C,E$20*%
X161963100Y-102146100D03*
X165519100Y-102146100D03*
%TO.C,E$51*%
X108623100Y-71666100D03*
X112179100Y-71666100D03*
%TO.C,E$57*%
X97828100Y-69761100D03*
X101384100Y-69761100D03*
%TO.C,E$5*%
X132943600Y-81000600D03*
X132943600Y-84556600D03*
%TO.C,E$28*%
X167551100Y-121323100D03*
X167551100Y-124879100D03*
%TO.C,E$3*%
X131991100Y-87033100D03*
X131991100Y-90589100D03*
%TO.C,E$29*%
X170091100Y-121323100D03*
X170091100Y-124879100D03*
%TO.C,E$61*%
X108623100Y-79603600D03*
X112179100Y-79603600D03*
%TO.C,E$66*%
X98463100Y-77381100D03*
X102019100Y-77381100D03*
%TO.C,E$19*%
X167043100Y-103416100D03*
X170599100Y-103416100D03*
%TO.C,E$4*%
X134531100Y-88938100D03*
X134531100Y-92494100D03*
%TO.C,E$25*%
X177292000Y-121412000D03*
X180848000Y-121412000D03*
%TO.C,E$86*%
X126403100Y-79921100D03*
X129959100Y-79921100D03*
%TO.C,E$6*%
X167551100Y-75603100D03*
X167551100Y-79159100D03*
%TO.C,E$26*%
X181013100Y-123444000D03*
X184569100Y-123444000D03*
%TO.C,E$31*%
X198475600Y-145008600D03*
X202031600Y-145008600D03*
%TO.C,E$62*%
X108623100Y-87541100D03*
X112179100Y-87541100D03*
%TO.C,E$67*%
X97828100Y-86271100D03*
X101384100Y-86271100D03*
%TD*%
D12*
X78333600Y-70396100D03*
X78333600Y-72936100D03*
X80238600Y-61188600D03*
X85001100Y-79921100D03*
X89128600Y-42456100D03*
X93256100Y-79921100D03*
X94208600Y-75476100D03*
X95796100Y-83096100D03*
X104051100Y-80556100D03*
X104686100Y-73571100D03*
X104686100Y-77698600D03*
X105321100Y-58966100D03*
X105638600Y-97383600D03*
X107861100Y-58966100D03*
X112306100Y-65951100D03*
X181838600Y-95478600D03*
X188856100Y-82228600D03*
X190093600Y-71031100D03*
X197612000Y-137160000D03*
X198348600Y-87223600D03*
X198348600Y-117068600D03*
X199936100Y-107861100D03*
X204381100Y-91986100D03*
X208508600Y-126276100D03*
X209778600Y-45313600D03*
X212852000Y-134112000D03*
X213588600Y-151041100D03*
X214223600Y-126911100D03*
X216408000Y-134620000D03*
D13*
%TO.C,E$83*%
X80238600Y-62776100D03*
X80238600Y-65316100D03*
X80238600Y-67856100D03*
X80238600Y-70396100D03*
X80238600Y-72936100D03*
%TO.C,E$18*%
X163233100Y-109766100D03*
X168059100Y-109766100D03*
%TO.C,E$120*%
X215480900Y-128181100D03*
X218681300Y-128181100D03*
%TO.C,E$106*%
X151041100Y-53886100D03*
X153581100Y-53886100D03*
X156121100Y-53886100D03*
X158661100Y-53886100D03*
X161201100Y-53886100D03*
%TO.C,E$113*%
X151041100Y-58331100D03*
X153581100Y-58331100D03*
X156121100Y-58331100D03*
X158661100Y-58331100D03*
X161201100Y-58331100D03*
X163741100Y-58331100D03*
X166281100Y-58331100D03*
%TO.C,E$23*%
X189141100Y-140881100D03*
X191681100Y-140881100D03*
X194221100Y-140881100D03*
X196761100Y-140881100D03*
X199301100Y-140881100D03*
%TO.C,E$118*%
X207860900Y-46583600D03*
X211061300Y-46583600D03*
%TO.C,E$90*%
X104990900Y-60553600D03*
X108191300Y-60553600D03*
%TO.C,E$38*%
X98326100Y-112941100D03*
X100876100Y-110381100D03*
X103426100Y-112941100D03*
%TO.C,E$37*%
X77724000Y-131826000D03*
X77724000Y-134366000D03*
X77724000Y-136906000D03*
X77724000Y-139446000D03*
X77724000Y-141986000D03*
%TO.C,E$27*%
X176885600Y-130086100D03*
X181711600Y-130086100D03*
%TO.C,E$84*%
X88493600Y-53251100D03*
X91033600Y-53251100D03*
X93573600Y-53251100D03*
X96113600Y-53251100D03*
X98653600Y-53251100D03*
%TO.C,E$21*%
X189141100Y-119926100D03*
X191681100Y-119926100D03*
X194221100Y-119926100D03*
X196761100Y-119926100D03*
X199301100Y-119926100D03*
%TO.C,E$32*%
X171996100Y-144691100D03*
X174536100Y-144691100D03*
X177076100Y-144691100D03*
X179616100Y-144691100D03*
X182156100Y-144691100D03*
%TO.C,E$75*%
X161074100Y-150501300D03*
X161074100Y-158883400D03*
%TO.C,E$95*%
X163614100Y-150501300D03*
X163614100Y-158883400D03*
%TO.C,E$34*%
X140620700Y-127000000D03*
X149002800Y-127000000D03*
%TO.C,E$69*%
X97701100Y-57283300D03*
X97701100Y-65665400D03*
%TO.C,E$36*%
X140620700Y-129540000D03*
X149002800Y-129540000D03*
%TO.C,E$2*%
X128181100Y-87033100D03*
X128181100Y-91859100D03*
%TO.C,E$121*%
X205740000Y-158419800D03*
X205740000Y-161620200D03*
%TO.C,E$70*%
X100241100Y-56648300D03*
X100241100Y-65030400D03*
%TO.C,E$141*%
X88480900Y-44996100D03*
X91681300Y-44996100D03*
%TO.C,E$74*%
X163614100Y-150501300D03*
X163614100Y-158883400D03*
%TO.C,E$13*%
X120211800Y-110401100D03*
X128593900Y-110401100D03*
%TO.C,E$22*%
X189141100Y-133896100D03*
X191681100Y-133896100D03*
X194221100Y-133896100D03*
X196761100Y-133896100D03*
X199301100Y-133896100D03*
%TO.C,E$30*%
X162598100Y-130721100D03*
X167424100Y-130721100D03*
%TO.C,E$119*%
X201193400Y-93573600D03*
X204393800Y-93573600D03*
%TO.C,E$24*%
X198970900Y-126911100D03*
X202171300Y-126911100D03*
%TD*%
D14*
X84836000Y-122428000D03*
X87541100Y-61061600D03*
X89446100Y-74079100D03*
X91033600Y-51219100D03*
X91668600Y-46901100D03*
X91986100Y-70396100D03*
X93472000Y-130556000D03*
X93573600Y-51028600D03*
X96431100Y-97701100D03*
X97383600Y-47536100D03*
X97701100Y-71666100D03*
X98336100Y-98844100D03*
X98653600Y-51346100D03*
X101511100Y-90081100D03*
X102108000Y-151384000D03*
X102146100Y-95796100D03*
X102146100Y-97701100D03*
X103416100Y-93891100D03*
X105003600Y-45948600D03*
X105321100Y-110401100D03*
X107861100Y-68808600D03*
X108178600Y-45948600D03*
X109448600Y-65633600D03*
X110744000Y-46228000D03*
X111252000Y-136652000D03*
X111988600Y-43726100D03*
X113576100Y-64046100D03*
X114211100Y-61823600D03*
X114846100Y-54203600D03*
X115798600Y-75793600D03*
X123736100Y-104686100D03*
X124053600Y-43726100D03*
X127508000Y-138684000D03*
X127546100Y-102146100D03*
X133578600Y-43726100D03*
X141833600Y-78016100D03*
X144373600Y-89128600D03*
X144691100Y-43726100D03*
X144691100Y-92621100D03*
X145643600Y-95161100D03*
X154216100Y-43726100D03*
X155486100Y-91986100D03*
X158661100Y-113576100D03*
X160566100Y-46266100D03*
X161836100Y-91668600D03*
X162290000Y-43726100D03*
X163741100Y-43726100D03*
X167233600Y-48806100D03*
X170408600Y-53568600D03*
X175806100Y-41821100D03*
X178346100Y-55791100D03*
X178981098Y-112776000D03*
X181203600Y-52933600D03*
X181864000Y-112268006D03*
X182791100Y-146596100D03*
X184378600Y-59601100D03*
X185648600Y-56426100D03*
X187452000Y-114808000D03*
X189141100Y-131673600D03*
X190728600Y-49441100D03*
X191681100Y-142468600D03*
X192633600Y-52616100D03*
X195808600Y-62458600D03*
X196443600Y-65316100D03*
X196443600Y-67221100D03*
X196761100Y-122466100D03*
X197713600Y-50393600D03*
X198983600Y-131038600D03*
X199301100Y-48171100D03*
X199301100Y-54838600D03*
X199618600Y-44678600D03*
X199936100Y-69126100D03*
X201841100Y-91668600D03*
X201841100Y-122466100D03*
X201841100Y-138976100D03*
X204063600Y-128498600D03*
X204381100Y-48171100D03*
X205016100Y-45631100D03*
X206603600Y-94526100D03*
X206921100Y-87223600D03*
X207873600Y-55791100D03*
X207873600Y-64998600D03*
X209143600Y-89128600D03*
X213360000Y-68580000D03*
X221526100Y-68808600D03*
X221526100Y-73888600D03*
D15*
%TO.C,E$83*%
X80238600Y-62776100D03*
X80238600Y-65316100D03*
X80238600Y-67856100D03*
X80238600Y-70396100D03*
X80238600Y-72936100D03*
X80238600Y-72936100D03*
%TO.C,MCT2E.*%
X142240000Y-124460000D03*
X142240000Y-132080000D03*
X144780000Y-124460000D03*
X144780000Y-132080000D03*
X147320000Y-124460000D03*
X147320000Y-132080000D03*
%TO.C,E$106*%
X151041100Y-53886100D03*
X153581100Y-53886100D03*
X156121100Y-53886100D03*
X158661100Y-53886100D03*
X161201100Y-53886100D03*
X161201100Y-53886100D03*
%TO.C,E$23*%
X189141100Y-140881100D03*
X191681100Y-140881100D03*
X194221100Y-140881100D03*
X196761100Y-140881100D03*
X199301100Y-140881100D03*
X199301100Y-140881100D03*
%TO.C,E$37*%
X77724000Y-131826000D03*
X77724000Y-131826000D03*
X77724000Y-134366000D03*
X77724000Y-136906000D03*
X77724000Y-139446000D03*
X77724000Y-141986000D03*
%TO.C,MCT2E*%
X95161100Y-59601100D03*
X95161100Y-62141100D03*
X95161100Y-64681100D03*
X102781100Y-59601100D03*
X102781100Y-62141100D03*
X102781100Y-64681100D03*
%TO.C,E$84*%
X88493600Y-53251100D03*
X91033600Y-53251100D03*
X93573600Y-53251100D03*
X96113600Y-53251100D03*
X98653600Y-53251100D03*
X98653600Y-53251100D03*
%TO.C,E$21*%
X189141100Y-119926100D03*
X191681100Y-119926100D03*
X194221100Y-119926100D03*
X196761100Y-119926100D03*
X199301100Y-119926100D03*
X199301100Y-119926100D03*
%TO.C,MCT2E\002C*%
X158534100Y-151549100D03*
X158534100Y-154089100D03*
X158534100Y-156629100D03*
X166154100Y-151549100D03*
X166154100Y-154089100D03*
X166154100Y-156629100D03*
%TO.C,E$32*%
X171996100Y-144691100D03*
X174536100Y-144691100D03*
X177076100Y-144691100D03*
X179616100Y-144691100D03*
X182156100Y-144691100D03*
X182156100Y-144691100D03*
%TO.C,E$22*%
X189141100Y-133896100D03*
X191681100Y-133896100D03*
X194221100Y-133896100D03*
X196761100Y-133896100D03*
X199301100Y-133896100D03*
X199301100Y-133896100D03*
D16*
%TO.C,ATTINY85\002C*%
X163741100Y-105956100D03*
X163741100Y-113576100D03*
X166281100Y-105956100D03*
X166281100Y-113576100D03*
X168821100Y-105956100D03*
X168821100Y-113576100D03*
X171361100Y-105956100D03*
X171361100Y-113576100D03*
%TO.C,ATTINY85*%
X177076100Y-126276100D03*
X177076100Y-133896100D03*
X179616100Y-126276100D03*
X179616100Y-133896100D03*
X182156100Y-126276100D03*
X182156100Y-133896100D03*
X184696100Y-126276100D03*
X184696100Y-133896100D03*
%TO.C,ATTINY85.*%
X165011100Y-126911100D03*
X165011100Y-134531100D03*
X167551100Y-126911100D03*
X167551100Y-134531100D03*
X170091100Y-126911100D03*
X170091100Y-134531100D03*
X172631100Y-126911100D03*
X172631100Y-134531100D03*
D17*
%TO.C,E$83*%
X80238600Y-67856100D03*
%TO.C,E$7*%
X191363600Y-90398600D03*
X191363600Y-92938600D03*
X191363600Y-95478600D03*
X191363600Y-98018600D03*
X191363600Y-100558600D03*
X193903600Y-90398600D03*
X193903600Y-92938600D03*
X193903600Y-95478600D03*
X193903600Y-98018600D03*
X193903600Y-100558600D03*
%TO.C,E$106*%
X156121100Y-53886100D03*
%TO.C,E$23*%
X194221100Y-140881100D03*
%TO.C,E$56*%
X89446100Y-87541100D03*
X89446100Y-90081100D03*
X89446100Y-92621100D03*
X89446100Y-95161100D03*
X89446100Y-97701100D03*
X91986100Y-87541100D03*
X91986100Y-90081100D03*
X91986100Y-92621100D03*
X91986100Y-95161100D03*
X91986100Y-97701100D03*
%TO.C,E$8*%
X126492000Y-61722000D03*
X126492000Y-64262000D03*
X129032000Y-61722000D03*
X129032000Y-64262000D03*
X131572000Y-61722000D03*
X131572000Y-64262000D03*
X134112000Y-61722000D03*
X134112000Y-64262000D03*
X136652000Y-61722000D03*
X136652000Y-64262000D03*
%TO.C,E$37*%
X77724000Y-136906000D03*
%TO.C,E$65*%
X181203600Y-51663600D03*
X181203600Y-54203600D03*
X183743600Y-51663600D03*
X183743600Y-54203600D03*
X186283600Y-51663600D03*
X186283600Y-54203600D03*
X188823600Y-51663600D03*
X188823600Y-54203600D03*
X191363600Y-51663600D03*
X191363600Y-54203600D03*
%TO.C,E$84*%
X93573600Y-53251100D03*
%TO.C,E$21*%
X194221100Y-119926100D03*
%TO.C,E$32*%
X177076100Y-144691100D03*
%TO.C,E$1*%
X120561100Y-73571100D03*
X120561100Y-76111100D03*
X120561100Y-78651100D03*
X120561100Y-81191100D03*
X120561100Y-83731100D03*
X120561100Y-86271100D03*
X120561100Y-88811100D03*
X120561100Y-91351100D03*
X120561100Y-93891100D03*
X120561100Y-96431100D03*
X123101100Y-72301100D03*
X123101100Y-74841100D03*
X123101100Y-77381100D03*
X123101100Y-79921100D03*
X123101100Y-82461100D03*
X123101100Y-85001100D03*
X123101100Y-87541100D03*
X123101100Y-90081100D03*
X123101100Y-92621100D03*
X123101100Y-95161100D03*
X123101100Y-97701100D03*
X125641100Y-72301100D03*
X125641100Y-97701100D03*
X128181100Y-72301100D03*
X128181100Y-97701100D03*
X130721100Y-72301100D03*
X130721100Y-97701100D03*
X133261100Y-72301100D03*
X133261100Y-97701100D03*
X135801100Y-72301100D03*
X135801100Y-97701100D03*
X138341100Y-72301100D03*
X138341100Y-97701100D03*
X140881100Y-72301100D03*
X140881100Y-97701100D03*
X143421100Y-72301100D03*
X143421100Y-97701100D03*
X145961100Y-72301100D03*
X145961100Y-97701100D03*
X148501100Y-72301100D03*
X148501100Y-97701100D03*
X151041100Y-72301100D03*
X151041100Y-97701100D03*
X153581100Y-72301100D03*
X153581100Y-97701100D03*
X156121100Y-72301100D03*
X156121100Y-97701100D03*
X158661100Y-72301100D03*
X158661100Y-97701100D03*
X161201100Y-72301100D03*
X161201100Y-97701100D03*
X163741100Y-72301100D03*
X163741100Y-97701100D03*
X166281100Y-72301100D03*
X166281100Y-97701100D03*
X168821100Y-72301100D03*
X168821100Y-97701100D03*
X171361100Y-72301100D03*
X171361100Y-74841100D03*
X171361100Y-77381100D03*
X171361100Y-79921100D03*
X171361100Y-82461100D03*
X171361100Y-85001100D03*
X171361100Y-87541100D03*
X171361100Y-90081100D03*
X171361100Y-92621100D03*
X171361100Y-95161100D03*
X171361100Y-97701100D03*
X173901100Y-73571100D03*
X173901100Y-76111100D03*
X173901100Y-78651100D03*
X173901100Y-81191100D03*
X173901100Y-83731100D03*
X173901100Y-86271100D03*
X173901100Y-88811100D03*
X173901100Y-91351100D03*
X173901100Y-93891100D03*
X173901100Y-96431100D03*
%TO.C,E$64*%
X197713600Y-59918600D03*
X197713600Y-62458600D03*
X200253600Y-59918600D03*
X200253600Y-62458600D03*
X202793600Y-59918600D03*
X202793600Y-62458600D03*
X205333600Y-59918600D03*
X205333600Y-62458600D03*
X207873600Y-59918600D03*
X207873600Y-62458600D03*
%TO.C,E$22*%
X194221100Y-133896100D03*
%TO.C,E$8*%
X182156100Y-79286100D03*
X182156100Y-81826100D03*
X182156100Y-84366100D03*
X182156100Y-86906100D03*
X182156100Y-89446100D03*
X184696100Y-79286100D03*
X184696100Y-81826100D03*
X184696100Y-84366100D03*
X184696100Y-86906100D03*
X184696100Y-89446100D03*
D18*
%TO.C,E$83*%
X80238600Y-62776100D03*
X80238600Y-65316100D03*
X80238600Y-67856100D03*
X80238600Y-70396100D03*
X80238600Y-72936100D03*
X80238600Y-75476100D03*
%TO.C,E$54*%
X107861100Y-75476100D03*
X110401100Y-75476100D03*
X112941100Y-75476100D03*
%TO.C,E$55*%
X107861100Y-67221100D03*
X110401100Y-67221100D03*
X112941100Y-67221100D03*
%TO.C,E$76*%
X148844000Y-150876000D03*
X151384000Y-150876000D03*
X153924000Y-150876000D03*
%TO.C,E$106*%
X151041100Y-53886100D03*
X153581100Y-53886100D03*
X156121100Y-53886100D03*
X158661100Y-53886100D03*
X161201100Y-53886100D03*
X163741100Y-53886100D03*
%TO.C,E$23*%
X189141100Y-140881100D03*
X191681100Y-140881100D03*
X194221100Y-140881100D03*
X196761100Y-140881100D03*
X199301100Y-140881100D03*
X201841100Y-140881100D03*
%TO.C,E$52*%
X107861100Y-91986100D03*
X110401100Y-91986100D03*
X112941100Y-91986100D03*
%TO.C,E$37*%
X77724000Y-129286000D03*
X77724000Y-131826000D03*
X77724000Y-134366000D03*
X77724000Y-136906000D03*
X77724000Y-139446000D03*
X77724000Y-141986000D03*
%TO.C,E$84*%
X88493600Y-53251100D03*
X91033600Y-53251100D03*
X93573600Y-53251100D03*
X96113600Y-53251100D03*
X98653600Y-53251100D03*
X101193600Y-53251100D03*
%TO.C,E$21*%
X189141100Y-119926100D03*
X191681100Y-119926100D03*
X194221100Y-119926100D03*
X196761100Y-119926100D03*
X199301100Y-119926100D03*
X201841100Y-119926100D03*
%TO.C,E$32*%
X171996100Y-144691100D03*
X174536100Y-144691100D03*
X177076100Y-144691100D03*
X179616100Y-144691100D03*
X182156100Y-144691100D03*
X184696100Y-144691100D03*
%TO.C,E$59*%
X97701100Y-81826100D03*
X100241100Y-81826100D03*
X102781100Y-81826100D03*
%TO.C,E$9*%
X155486100Y-90398600D03*
X158026100Y-90398600D03*
X160566100Y-90398600D03*
%TO.C,E$53*%
X107861100Y-83731100D03*
X110401100Y-83731100D03*
X112941100Y-83731100D03*
%TO.C,E$22*%
X189141100Y-133896100D03*
X191681100Y-133896100D03*
X194221100Y-133896100D03*
X196761100Y-133896100D03*
X199301100Y-133896100D03*
X201841100Y-133896100D03*
%TO.C,E$48*%
X145961100Y-90398600D03*
X148501100Y-90398600D03*
X151041100Y-90398600D03*
%TO.C,E$35*%
X140716000Y-145796000D03*
X143256000Y-145796000D03*
X145796000Y-145796000D03*
%TO.C,E$60*%
X90081100Y-65316100D03*
X90081100Y-67856100D03*
X90081100Y-70396100D03*
%TO.C,E$50*%
X107861100Y-98971100D03*
X110401100Y-98971100D03*
X112941100Y-98971100D03*
%TD*%
D19*
X209319890Y-120109244D03*
X213588600Y-152946100D03*
X213906100Y-120561100D03*
X216446100Y-120561100D03*
D20*
%TO.C,REF\002A\002A*%
X79756000Y-106172000D03*
X79756000Y-108712000D03*
X79756000Y-111252000D03*
X79756000Y-113792000D03*
X79756000Y-116332000D03*
X79756000Y-118872000D03*
X79756000Y-121412000D03*
%TO.C,LCD*%
X114278600Y-107283600D03*
X116818600Y-107283600D03*
X119358600Y-107283600D03*
X121898600Y-107283600D03*
X124438600Y-107283600D03*
X126978600Y-107283600D03*
X129518600Y-107283600D03*
X132058600Y-107283600D03*
X134598600Y-107283600D03*
X137138600Y-107283600D03*
X139678600Y-107283600D03*
X142218600Y-107283600D03*
X144758600Y-107283600D03*
X147298600Y-107283600D03*
X149838600Y-107283600D03*
X152378600Y-107283600D03*
%TO.C,E$63*%
X96050100Y-100526800D03*
X96050100Y-105035400D03*
X102527100Y-100526800D03*
X102527100Y-105035400D03*
%TO.C,jtag*%
X107188000Y-148844000D03*
X107188000Y-151384000D03*
X109728000Y-148844000D03*
X109728000Y-151384000D03*
X112268000Y-148844000D03*
X112268000Y-151384000D03*
X114808000Y-148844000D03*
X114808000Y-151384000D03*
X117348000Y-148844000D03*
X117348000Y-151384000D03*
X119888000Y-148844000D03*
X119888000Y-151384000D03*
X122428000Y-148844000D03*
X122428000Y-151384000D03*
X124968000Y-148844000D03*
X124968000Y-151384000D03*
X127508000Y-148844000D03*
X127508000Y-151384000D03*
X130048000Y-148844000D03*
X130048000Y-151384000D03*
%TD*%
D21*
X79921100Y-55156100D03*
D22*
%TO.C,E$108*%
X218033600Y-68808600D03*
X218033600Y-73888600D03*
%TO.C,E$109*%
X218033600Y-78968600D03*
X218033600Y-84048600D03*
M02*
