G04 #@! TF.GenerationSoftware,KiCad,Pcbnew,(5.1.4)-1*
G04 #@! TF.CreationDate,2019-12-20T17:21:36+05:30*
G04 #@! TF.ProjectId,2014_board_SPI_Pullupattiny_4,32303134-5f62-46f6-9172-645f5350495f,rev?*
G04 #@! TF.SameCoordinates,Original*
G04 #@! TF.FileFunction,Copper,L1,Top*
G04 #@! TF.FilePolarity,Positive*
%FSLAX46Y46*%
G04 Gerber Fmt 4.6, Leading zero omitted, Abs format (unit mm)*
G04 Created by KiCad (PCBNEW (5.1.4)-1) date 2019-12-20 17:21:36*
%MOMM*%
%LPD*%
G04 APERTURE LIST*
G04 #@! TA.AperFunction,NonConductor*
%ADD10C,0.251460*%
G04 #@! TD*
G04 #@! TA.AperFunction,ComponentPad*
%ADD11O,1.700000X1.700000*%
G04 #@! TD*
G04 #@! TA.AperFunction,ComponentPad*
%ADD12R,1.700000X1.700000*%
G04 #@! TD*
G04 #@! TA.AperFunction,ComponentPad*
%ADD13C,1.676400*%
G04 #@! TD*
G04 #@! TA.AperFunction,ComponentPad*
%ADD14C,2.032000*%
G04 #@! TD*
G04 #@! TA.AperFunction,ComponentPad*
%ADD15C,1.408000*%
G04 #@! TD*
G04 #@! TA.AperFunction,ComponentPad*
%ADD16C,1.422400*%
G04 #@! TD*
G04 #@! TA.AperFunction,ComponentPad*
%ADD17C,1.778000*%
G04 #@! TD*
G04 #@! TA.AperFunction,ComponentPad*
%ADD18O,1.320800X2.641600*%
G04 #@! TD*
G04 #@! TA.AperFunction,ComponentPad*
%ADD19C,2.184400*%
G04 #@! TD*
G04 #@! TA.AperFunction,SMDPad,CuDef*
%ADD20R,1.066800X2.159000*%
G04 #@! TD*
G04 #@! TA.AperFunction,SMDPad,CuDef*
%ADD21R,10.800000X10.410000*%
G04 #@! TD*
G04 #@! TA.AperFunction,ComponentPad*
%ADD22C,3.175000*%
G04 #@! TD*
G04 #@! TA.AperFunction,SMDPad,CuDef*
%ADD23R,3.600000X2.200000*%
G04 #@! TD*
G04 #@! TA.AperFunction,SMDPad,CuDef*
%ADD24R,1.219200X2.235200*%
G04 #@! TD*
G04 #@! TA.AperFunction,SMDPad,CuDef*
%ADD25R,1.600000X2.000000*%
G04 #@! TD*
G04 #@! TA.AperFunction,SMDPad,CuDef*
%ADD26R,2.000000X1.600000*%
G04 #@! TD*
G04 #@! TA.AperFunction,SMDPad,CuDef*
%ADD27R,1.803000X1.600000*%
G04 #@! TD*
G04 #@! TA.AperFunction,SMDPad,CuDef*
%ADD28R,1.600000X1.803000*%
G04 #@! TD*
G04 #@! TA.AperFunction,SMDPad,CuDef*
%ADD29R,1.600000X1.800000*%
G04 #@! TD*
G04 #@! TA.AperFunction,SMDPad,CuDef*
%ADD30R,1.800000X1.600000*%
G04 #@! TD*
G04 #@! TA.AperFunction,ViaPad*
%ADD31C,1.206400*%
G04 #@! TD*
G04 #@! TA.AperFunction,ViaPad*
%ADD32C,1.016000*%
G04 #@! TD*
G04 #@! TA.AperFunction,ViaPad*
%ADD33C,1.006400*%
G04 #@! TD*
G04 #@! TA.AperFunction,ViaPad*
%ADD34C,1.422400*%
G04 #@! TD*
G04 #@! TA.AperFunction,ViaPad*
%ADD35C,0.800000*%
G04 #@! TD*
G04 #@! TA.AperFunction,ViaPad*
%ADD36C,1.406400*%
G04 #@! TD*
G04 #@! TA.AperFunction,ViaPad*
%ADD37C,1.806400*%
G04 #@! TD*
G04 #@! TA.AperFunction,Conductor*
%ADD38C,1.016000*%
G04 #@! TD*
G04 #@! TA.AperFunction,Conductor*
%ADD39C,0.812800*%
G04 #@! TD*
G04 #@! TA.AperFunction,Conductor*
%ADD40C,0.609600*%
G04 #@! TD*
G04 #@! TA.AperFunction,Conductor*
%ADD41C,0.406400*%
G04 #@! TD*
G04 #@! TA.AperFunction,Conductor*
%ADD42C,0.250000*%
G04 #@! TD*
G04 APERTURE END LIST*
D10*
X136618780Y-84773588D02*
X136542943Y-84849425D01*
X136315431Y-84925262D01*
X136163757Y-84925262D01*
X135936246Y-84849425D01*
X135784571Y-84697751D01*
X135708734Y-84546077D01*
X135632897Y-84242728D01*
X135632897Y-84015217D01*
X135708734Y-83711868D01*
X135784571Y-83560194D01*
X135936246Y-83408520D01*
X136163757Y-83332682D01*
X136315431Y-83332682D01*
X136542943Y-83408520D01*
X136618780Y-83484357D01*
X137528826Y-84925262D02*
X137377151Y-84849425D01*
X137301314Y-84773588D01*
X137225477Y-84621914D01*
X137225477Y-84166891D01*
X137301314Y-84015217D01*
X137377151Y-83939380D01*
X137528826Y-83863542D01*
X137756337Y-83863542D01*
X137908011Y-83939380D01*
X137983849Y-84015217D01*
X138059686Y-84166891D01*
X138059686Y-84621914D01*
X137983849Y-84773588D01*
X137908011Y-84849425D01*
X137756337Y-84925262D01*
X137528826Y-84925262D01*
X138742220Y-84925262D02*
X138742220Y-83863542D01*
X138742220Y-84015217D02*
X138818057Y-83939380D01*
X138969731Y-83863542D01*
X139197243Y-83863542D01*
X139348917Y-83939380D01*
X139424754Y-84091054D01*
X139424754Y-84925262D01*
X139424754Y-84091054D02*
X139500591Y-83939380D01*
X139652266Y-83863542D01*
X139879777Y-83863542D01*
X140031451Y-83939380D01*
X140107289Y-84091054D01*
X140107289Y-84925262D01*
X140865660Y-83863542D02*
X140865660Y-85456122D01*
X140865660Y-83939380D02*
X141017334Y-83863542D01*
X141320683Y-83863542D01*
X141472357Y-83939380D01*
X141548194Y-84015217D01*
X141624031Y-84166891D01*
X141624031Y-84621914D01*
X141548194Y-84773588D01*
X141472357Y-84849425D01*
X141320683Y-84925262D01*
X141017334Y-84925262D01*
X140865660Y-84849425D01*
X142534077Y-84925262D02*
X142382403Y-84849425D01*
X142306566Y-84773588D01*
X142230729Y-84621914D01*
X142230729Y-84166891D01*
X142306566Y-84015217D01*
X142382403Y-83939380D01*
X142534077Y-83863542D01*
X142761589Y-83863542D01*
X142913263Y-83939380D01*
X142989100Y-84015217D01*
X143064937Y-84166891D01*
X143064937Y-84621914D01*
X142989100Y-84773588D01*
X142913263Y-84849425D01*
X142761589Y-84925262D01*
X142534077Y-84925262D01*
X143747471Y-83863542D02*
X143747471Y-84925262D01*
X143747471Y-84015217D02*
X143823309Y-83939380D01*
X143974983Y-83863542D01*
X144202494Y-83863542D01*
X144354169Y-83939380D01*
X144430006Y-84091054D01*
X144430006Y-84925262D01*
X145795074Y-84849425D02*
X145643400Y-84925262D01*
X145340051Y-84925262D01*
X145188377Y-84849425D01*
X145112540Y-84697751D01*
X145112540Y-84091054D01*
X145188377Y-83939380D01*
X145340051Y-83863542D01*
X145643400Y-83863542D01*
X145795074Y-83939380D01*
X145870911Y-84091054D01*
X145870911Y-84242728D01*
X145112540Y-84394402D01*
X146553446Y-83863542D02*
X146553446Y-84925262D01*
X146553446Y-84015217D02*
X146629283Y-83939380D01*
X146780957Y-83863542D01*
X147008469Y-83863542D01*
X147160143Y-83939380D01*
X147235980Y-84091054D01*
X147235980Y-84925262D01*
X147766840Y-83863542D02*
X148373537Y-83863542D01*
X147994351Y-83332682D02*
X147994351Y-84697751D01*
X148070189Y-84849425D01*
X148221863Y-84925262D01*
X148373537Y-84925262D01*
X150041954Y-84849425D02*
X150193629Y-84925262D01*
X150496977Y-84925262D01*
X150648651Y-84849425D01*
X150724489Y-84697751D01*
X150724489Y-84621914D01*
X150648651Y-84470240D01*
X150496977Y-84394402D01*
X150269466Y-84394402D01*
X150117791Y-84318565D01*
X150041954Y-84166891D01*
X150041954Y-84091054D01*
X150117791Y-83939380D01*
X150269466Y-83863542D01*
X150496977Y-83863542D01*
X150648651Y-83939380D01*
X151407023Y-84925262D02*
X151407023Y-83863542D01*
X151407023Y-83332682D02*
X151331186Y-83408520D01*
X151407023Y-83484357D01*
X151482860Y-83408520D01*
X151407023Y-83332682D01*
X151407023Y-83484357D01*
X152847929Y-84925262D02*
X152847929Y-83332682D01*
X152847929Y-84849425D02*
X152696254Y-84925262D01*
X152392906Y-84925262D01*
X152241231Y-84849425D01*
X152165394Y-84773588D01*
X152089557Y-84621914D01*
X152089557Y-84166891D01*
X152165394Y-84015217D01*
X152241231Y-83939380D01*
X152392906Y-83863542D01*
X152696254Y-83863542D01*
X152847929Y-83939380D01*
X154212997Y-84849425D02*
X154061323Y-84925262D01*
X153757974Y-84925262D01*
X153606300Y-84849425D01*
X153530463Y-84697751D01*
X153530463Y-84091054D01*
X153606300Y-83939380D01*
X153757974Y-83863542D01*
X154061323Y-83863542D01*
X154212997Y-83939380D01*
X154288834Y-84091054D01*
X154288834Y-84242728D01*
X153530463Y-84394402D01*
D11*
G04 #@! TO.P,jtag,20*
G04 #@! TO.N,GND*
X107188000Y-151384000D03*
G04 #@! TO.P,jtag,19*
G04 #@! TO.N,N/C*
X107188000Y-148844000D03*
G04 #@! TO.P,jtag,18*
G04 #@! TO.N,GND*
X109728000Y-151384000D03*
G04 #@! TO.P,jtag,17*
G04 #@! TO.N,N/C*
X109728000Y-148844000D03*
G04 #@! TO.P,jtag,16*
G04 #@! TO.N,GND*
X112268000Y-151384000D03*
G04 #@! TO.P,jtag,15*
G04 #@! TO.N,S$140*
X112268000Y-148844000D03*
G04 #@! TO.P,jtag,14*
G04 #@! TO.N,GND*
X114808000Y-151384000D03*
G04 #@! TO.P,jtag,13*
G04 #@! TO.N,N/C*
X114808000Y-148844000D03*
G04 #@! TO.P,jtag,12*
G04 #@! TO.N,GND*
X117348000Y-151384000D03*
G04 #@! TO.P,jtag,11*
G04 #@! TO.N,N/C*
X117348000Y-148844000D03*
G04 #@! TO.P,jtag,10*
G04 #@! TO.N,GND*
X119888000Y-151384000D03*
G04 #@! TO.P,jtag,9*
G04 #@! TO.N,N/C*
X119888000Y-148844000D03*
G04 #@! TO.P,jtag,8*
G04 #@! TO.N,GND*
X122428000Y-151384000D03*
G04 #@! TO.P,jtag,7*
G04 #@! TO.N,N/C*
X122428000Y-148844000D03*
G04 #@! TO.P,jtag,6*
G04 #@! TO.N,GND*
X124968000Y-151384000D03*
G04 #@! TO.P,jtag,5*
G04 #@! TO.N,N/C*
X124968000Y-148844000D03*
G04 #@! TO.P,jtag,4*
G04 #@! TO.N,GND*
X127508000Y-151384000D03*
G04 #@! TO.P,jtag,3*
G04 #@! TO.N,N/C*
X127508000Y-148844000D03*
G04 #@! TO.P,jtag,2*
X130048000Y-151384000D03*
D12*
G04 #@! TO.P,jtag,1*
X130048000Y-148844000D03*
G04 #@! TD*
D11*
G04 #@! TO.P,REF\002A\002A,7*
G04 #@! TO.N,GND*
X79756000Y-121412000D03*
G04 #@! TO.P,REF\002A\002A,6*
G04 #@! TO.N,N/C*
X79756000Y-118872000D03*
G04 #@! TO.P,REF\002A\002A,5*
X79756000Y-116332000D03*
G04 #@! TO.P,REF\002A\002A,4*
X79756000Y-113792000D03*
G04 #@! TO.P,REF\002A\002A,3*
X79756000Y-111252000D03*
G04 #@! TO.P,REF\002A\002A,2*
X79756000Y-108712000D03*
D12*
G04 #@! TO.P,REF\002A\002A,1*
X79756000Y-106172000D03*
G04 #@! TD*
D13*
G04 #@! TO.P,LCD,16*
G04 #@! TO.N,N/C*
X152378600Y-107283600D03*
G04 #@! TO.P,LCD,15*
X149838600Y-107283600D03*
G04 #@! TO.P,LCD,14*
X147298600Y-107283600D03*
G04 #@! TO.P,LCD,13*
X144758600Y-107283600D03*
G04 #@! TO.P,LCD,12*
X142218600Y-107283600D03*
G04 #@! TO.P,LCD,11*
X139678600Y-107283600D03*
G04 #@! TO.P,LCD,10*
X137138600Y-107283600D03*
G04 #@! TO.P,LCD,9*
X134598600Y-107283600D03*
G04 #@! TO.P,LCD,8*
X132058600Y-107283600D03*
G04 #@! TO.P,LCD,7*
X129518600Y-107283600D03*
G04 #@! TO.P,LCD,6*
G04 #@! TO.N,S$156*
X126978600Y-107283600D03*
G04 #@! TO.P,LCD,5*
G04 #@! TO.N,N/C*
X124438600Y-107283600D03*
G04 #@! TO.P,LCD,4*
X121898600Y-107283600D03*
G04 #@! TO.P,LCD,3*
X119358600Y-107283600D03*
G04 #@! TO.P,LCD,2*
G04 #@! TO.N,5V_PERIPHERALS*
X116818600Y-107283600D03*
G04 #@! TO.P,LCD,1*
G04 #@! TO.N,N/C*
X114278600Y-107283600D03*
G04 #@! TD*
D14*
G04 #@! TO.P,E$8,P$21*
G04 #@! TO.N,S$112*
X129032000Y-64262000D03*
G04 #@! TO.P,E$8,P$22*
G04 #@! TO.N,S$129*
X131572000Y-64262000D03*
G04 #@! TO.P,E$8,P$23*
G04 #@! TO.N,S$128*
X134112000Y-64262000D03*
G04 #@! TO.P,E$8,5*
G04 #@! TO.N,GND*
X136652000Y-64262000D03*
G04 #@! TO.P,E$8,6*
X136652000Y-61722000D03*
G04 #@! TO.P,E$8,P$24*
G04 #@! TO.N,S$142*
X134112000Y-61722000D03*
G04 #@! TO.P,E$8,P$25*
G04 #@! TO.N,S$143*
X131572000Y-61722000D03*
G04 #@! TO.P,E$8,P$20*
G04 #@! TO.N,S$60*
X129032000Y-61722000D03*
G04 #@! TO.P,E$8,10*
G04 #@! TO.N,12V*
X126492000Y-61722000D03*
G04 #@! TO.P,E$8,1*
X126492000Y-64262000D03*
G04 #@! TD*
D15*
G04 #@! TO.P,E$1,P$19*
G04 #@! TO.N,S$130*
X120561100Y-73571100D03*
D16*
G04 #@! TO.P,E$1,P$78*
G04 #@! TO.N,S$170*
X173901100Y-73571100D03*
G04 #@! TO.P,E$1,P$77*
G04 #@! TO.N,3.3V*
X173901100Y-76111100D03*
G04 #@! TO.P,E$1,P$76*
G04 #@! TO.N,S$161*
X173901100Y-78651100D03*
G04 #@! TO.P,E$1,P$75*
G04 #@! TO.N,N/C*
X173901100Y-81191100D03*
G04 #@! TO.P,E$1,P$74*
G04 #@! TO.N,S$10*
X173901100Y-83731100D03*
G04 #@! TO.P,E$1,P$73*
G04 #@! TO.N,S$19*
X173901100Y-86271100D03*
G04 #@! TO.P,E$1,P$72*
G04 #@! TO.N,N/C*
X173901100Y-88811100D03*
G04 #@! TO.P,E$1,P$71*
G04 #@! TO.N,S$24*
X173901100Y-91351100D03*
G04 #@! TO.P,E$1,P$70*
G04 #@! TO.N,S$27*
X173901100Y-93891100D03*
G04 #@! TO.P,E$1,P$69*
G04 #@! TO.N,S$177*
X173901100Y-96431100D03*
G04 #@! TO.P,E$1,P$68*
G04 #@! TO.N,S$53*
X123101100Y-97701100D03*
G04 #@! TO.P,E$1,P$67*
G04 #@! TO.N,S$35*
X125641100Y-97701100D03*
G04 #@! TO.P,E$1,P$66*
G04 #@! TO.N,S$55*
X128181100Y-97701100D03*
G04 #@! TO.P,E$1,P$65*
G04 #@! TO.N,S$107*
X130721100Y-97701100D03*
G04 #@! TO.P,E$1,P$64*
G04 #@! TO.N,S$156*
X133261100Y-97701100D03*
G04 #@! TO.P,E$1,P$63*
G04 #@! TO.N,S$86*
X135801100Y-97701100D03*
G04 #@! TO.P,E$1,P$62*
G04 #@! TO.N,S$83*
X138341100Y-97701100D03*
G04 #@! TO.P,E$1,P$61*
G04 #@! TO.N,S$40*
X140881100Y-97701100D03*
G04 #@! TO.P,E$1,P$60*
G04 #@! TO.N,S$39*
X143421100Y-97701100D03*
G04 #@! TO.P,E$1,P$59*
G04 #@! TO.N,S$62*
X145961100Y-97701100D03*
G04 #@! TO.P,E$1,P$58*
G04 #@! TO.N,S$38*
X148501100Y-97701100D03*
G04 #@! TO.P,E$1,P$57*
G04 #@! TO.N,S$37*
X151041100Y-97701100D03*
G04 #@! TO.P,E$1,P$56*
G04 #@! TO.N,S$90*
X153581100Y-97701100D03*
G04 #@! TO.P,E$1,P$55*
G04 #@! TO.N,S$45*
X156121100Y-97701100D03*
G04 #@! TO.P,E$1,P$54*
G04 #@! TO.N,S$100*
X158661100Y-97701100D03*
G04 #@! TO.P,E$1,P$53*
G04 #@! TO.N,S$57*
X161201100Y-97701100D03*
G04 #@! TO.P,E$1,P$52*
G04 #@! TO.N,S$8*
X163741100Y-97701100D03*
G04 #@! TO.P,E$1,P$51*
G04 #@! TO.N,S$52*
X166281100Y-97701100D03*
G04 #@! TO.P,E$1,P$50*
G04 #@! TO.N,S$54*
X168821100Y-97701100D03*
G04 #@! TO.P,E$1,P$49*
G04 #@! TO.N,S$34*
X171361100Y-97701100D03*
G04 #@! TO.P,E$1,P$48*
G04 #@! TO.N,S$13*
X171361100Y-95161100D03*
G04 #@! TO.P,E$1,P$47*
G04 #@! TO.N,S$17*
X171361100Y-92621100D03*
G04 #@! TO.P,E$1,P$46*
G04 #@! TO.N,N/C*
X171361100Y-90081100D03*
G04 #@! TO.P,E$1,P$45*
G04 #@! TO.N,S$22*
X171361100Y-87541100D03*
G04 #@! TO.P,E$1,P$44*
G04 #@! TO.N,S$6*
X171361100Y-85001100D03*
G04 #@! TO.P,E$1,P$43*
G04 #@! TO.N,S$11*
X171361100Y-82461100D03*
G04 #@! TO.P,E$1,P$42*
G04 #@! TO.N,S$21*
X171361100Y-79921100D03*
G04 #@! TO.P,E$1,P$41*
G04 #@! TO.N,S$25*
X171361100Y-77381100D03*
G04 #@! TO.P,E$1,P$40*
G04 #@! TO.N,GND*
X171361100Y-74841100D03*
G04 #@! TO.P,E$1,P$39*
G04 #@! TO.N,S$163*
X171361100Y-72301100D03*
G04 #@! TO.P,E$1,P$38*
G04 #@! TO.N,S$164*
X168821100Y-72301100D03*
G04 #@! TO.P,E$1,P$37*
G04 #@! TO.N,S$135*
X166281100Y-72301100D03*
G04 #@! TO.P,E$1,P$36*
G04 #@! TO.N,S$9*
X163741100Y-72301100D03*
G04 #@! TO.P,E$1,P$35*
G04 #@! TO.N,S$166*
X161201100Y-72301100D03*
G04 #@! TO.P,E$1,P$34*
G04 #@! TO.N,S$91*
X158661100Y-72301100D03*
G04 #@! TO.P,E$1,P$33*
G04 #@! TO.N,S$165*
X156121100Y-72301100D03*
G04 #@! TO.P,E$1,P$32*
G04 #@! TO.N,S$34*
X153581100Y-72301100D03*
G04 #@! TO.P,E$1,P$31*
G04 #@! TO.N,S$168*
X151041100Y-72301100D03*
G04 #@! TO.P,E$1,P$30*
G04 #@! TO.N,S$169*
X148501100Y-72301100D03*
G04 #@! TO.P,E$1,P$29*
G04 #@! TO.N,S$76*
X145961100Y-72301100D03*
G04 #@! TO.P,E$1,P$28*
G04 #@! TO.N,S$181*
X143421100Y-72301100D03*
G04 #@! TO.P,E$1,P$27*
G04 #@! TO.N,S$68*
X140881100Y-72301100D03*
G04 #@! TO.P,E$1,P$26*
G04 #@! TO.N,S$179*
X138341100Y-72301100D03*
G04 #@! TO.P,E$1,P$25*
G04 #@! TO.N,S$143*
X135801100Y-72301100D03*
G04 #@! TO.P,E$1,P$24*
G04 #@! TO.N,S$142*
X133261100Y-72301100D03*
G04 #@! TO.P,E$1,P$23*
G04 #@! TO.N,S$128*
X130721100Y-72301100D03*
G04 #@! TO.P,E$1,P$22*
G04 #@! TO.N,S$129*
X128181100Y-72301100D03*
G04 #@! TO.P,E$1,P$21*
G04 #@! TO.N,S$112*
X125641100Y-72301100D03*
G04 #@! TO.P,E$1,P$20*
G04 #@! TO.N,S$60*
X123101100Y-72301100D03*
G04 #@! TO.P,E$1,P$18*
G04 #@! TO.N,S$110*
X120561100Y-76111100D03*
G04 #@! TO.P,E$1,P$17*
G04 #@! TO.N,S$123*
X120561100Y-78651100D03*
G04 #@! TO.P,E$1,P$16*
G04 #@! TO.N,S$113*
X120561100Y-81191100D03*
G04 #@! TO.P,E$1,P$15*
G04 #@! TO.N,3.3V*
X120561100Y-83731100D03*
G04 #@! TO.P,E$1,P$14*
G04 #@! TO.N,S$140*
X120561100Y-86271100D03*
G04 #@! TO.P,E$1,P$13*
G04 #@! TO.N,S$4*
X120561100Y-88811100D03*
G04 #@! TO.P,E$1,P$12*
G04 #@! TO.N,S$121*
X120561100Y-91351100D03*
G04 #@! TO.P,E$1,P$11*
G04 #@! TO.N,S$75*
X120561100Y-96431100D03*
G04 #@! TO.P,E$1,P$10*
G04 #@! TO.N,S$122*
X120561100Y-93891100D03*
G04 #@! TO.P,E$1,P$9*
G04 #@! TO.N,S$65*
X123101100Y-95161100D03*
G04 #@! TO.P,E$1,P$8*
G04 #@! TO.N,S$171*
X123101100Y-92621100D03*
G04 #@! TO.P,E$1,P$7*
G04 #@! TO.N,S$118*
X123101100Y-90081100D03*
G04 #@! TO.P,E$1,P$6*
G04 #@! TO.N,S$5*
X123101100Y-87541100D03*
G04 #@! TO.P,E$1,P$5*
G04 #@! TO.N,S$44*
X123101100Y-74841100D03*
G04 #@! TO.P,E$1,P$4*
G04 #@! TO.N,S$88*
X123101100Y-77381100D03*
G04 #@! TO.P,E$1,P$3*
G04 #@! TO.N,S$124*
X123101100Y-79921100D03*
G04 #@! TO.P,E$1,P$2*
G04 #@! TO.N,S$105*
X123101100Y-82461100D03*
G04 #@! TO.P,E$1,P$1*
G04 #@! TO.N,GND*
X123101100Y-85001100D03*
G04 #@! TD*
D17*
G04 #@! TO.P,E$2,2*
G04 #@! TO.N,N/C*
X128181100Y-87033100D03*
G04 #@! TO.P,E$2,1*
X128181100Y-91859100D03*
G04 #@! TD*
D13*
G04 #@! TO.P,E$3,2*
G04 #@! TO.N,N/C*
X131991100Y-87033100D03*
G04 #@! TO.P,E$3,1*
X131991100Y-90589100D03*
G04 #@! TD*
G04 #@! TO.P,E$4,2*
G04 #@! TO.N,N/C*
X134531100Y-88938100D03*
G04 #@! TO.P,E$4,1*
X134531100Y-92494100D03*
G04 #@! TD*
G04 #@! TO.P,E$5,2*
G04 #@! TO.N,N/C*
X132943600Y-81000600D03*
G04 #@! TO.P,E$5,1*
X132943600Y-84556600D03*
G04 #@! TD*
G04 #@! TO.P,E$6,2*
G04 #@! TO.N,N/C*
X167551100Y-75603100D03*
G04 #@! TO.P,E$6,1*
X167551100Y-79159100D03*
G04 #@! TD*
D17*
G04 #@! TO.P,E$13,1*
G04 #@! TO.N,5V_PERIPHERALS*
X120211800Y-110401100D03*
G04 #@! TO.P,E$13,2*
G04 #@! TO.N,N/C*
X128593900Y-110401100D03*
G04 #@! TD*
D18*
G04 #@! TO.P,ATTINY85\002C,5*
G04 #@! TO.N,S$62*
X163741100Y-113576100D03*
G04 #@! TO.P,ATTINY85\002C,6*
G04 #@! TO.N,S$8*
X166281100Y-113576100D03*
G04 #@! TO.P,ATTINY85\002C,4*
G04 #@! TO.N,GND*
X163741100Y-105956100D03*
G04 #@! TO.P,ATTINY85\002C,3*
G04 #@! TO.N,S$46*
X166281100Y-105956100D03*
G04 #@! TO.P,ATTINY85\002C,8*
G04 #@! TO.N,5V_SHARP*
X171361100Y-113576100D03*
G04 #@! TO.P,ATTINY85\002C,7*
G04 #@! TO.N,S$51*
X168821100Y-113576100D03*
G04 #@! TO.P,ATTINY85\002C,2*
G04 #@! TO.N,S$58*
X168821100Y-105956100D03*
G04 #@! TO.P,ATTINY85\002C,1*
G04 #@! TO.N,S$89*
X171361100Y-105956100D03*
G04 #@! TD*
D13*
G04 #@! TO.P,E$15,2*
G04 #@! TO.N,5V_PERIPHERALS*
X117894100Y-110401100D03*
G04 #@! TO.P,E$15,1*
G04 #@! TO.N,N/C*
X114338100Y-110401100D03*
G04 #@! TD*
D18*
G04 #@! TO.P,ATTINY85,5*
G04 #@! TO.N,S$34*
X177076100Y-133896100D03*
G04 #@! TO.P,ATTINY85,6*
G04 #@! TO.N,S$54*
X179616100Y-133896100D03*
G04 #@! TO.P,ATTINY85,4*
G04 #@! TO.N,GND*
X177076100Y-126276100D03*
G04 #@! TO.P,ATTINY85,3*
G04 #@! TO.N,S$59*
X179616100Y-126276100D03*
G04 #@! TO.P,ATTINY85,8*
G04 #@! TO.N,5V_SHARP*
X184696100Y-133896100D03*
G04 #@! TO.P,ATTINY85,7*
G04 #@! TO.N,S$48*
X182156100Y-133896100D03*
G04 #@! TO.P,ATTINY85,2*
G04 #@! TO.N,S$50*
X182156100Y-126276100D03*
G04 #@! TO.P,ATTINY85,1*
G04 #@! TO.N,S$82*
X184696100Y-126276100D03*
G04 #@! TD*
G04 #@! TO.P,ATTINY85.,5*
G04 #@! TO.N,S$53*
X165011100Y-134531100D03*
G04 #@! TO.P,ATTINY85.,6*
G04 #@! TO.N,S$52*
X167551100Y-134531100D03*
G04 #@! TO.P,ATTINY85.,4*
G04 #@! TO.N,GND*
X165011100Y-126911100D03*
G04 #@! TO.P,ATTINY85.,3*
G04 #@! TO.N,S$66*
X167551100Y-126911100D03*
G04 #@! TO.P,ATTINY85.,8*
G04 #@! TO.N,5V_SHARP*
X172631100Y-134531100D03*
G04 #@! TO.P,ATTINY85.,7*
G04 #@! TO.N,S$2*
X170091100Y-134531100D03*
G04 #@! TO.P,ATTINY85.,2*
G04 #@! TO.N,S$102*
X170091100Y-126911100D03*
G04 #@! TO.P,ATTINY85.,1*
G04 #@! TO.N,S$63*
X172631100Y-126911100D03*
G04 #@! TD*
D17*
G04 #@! TO.P,E$18,2*
G04 #@! TO.N,N/C*
X163233100Y-109766100D03*
G04 #@! TO.P,E$18,1*
X168059100Y-109766100D03*
G04 #@! TD*
D13*
G04 #@! TO.P,E$19,2*
G04 #@! TO.N,N/C*
X170599100Y-103416100D03*
G04 #@! TO.P,E$19,1*
X167043100Y-103416100D03*
G04 #@! TD*
G04 #@! TO.P,E$20,2*
G04 #@! TO.N,N/C*
X165519100Y-102146100D03*
G04 #@! TO.P,E$20,1*
X161963100Y-102146100D03*
G04 #@! TD*
D17*
G04 #@! TO.P,E$21,18*
G04 #@! TO.N,N/C*
X189141100Y-119926100D03*
G04 #@! TO.P,E$21,17*
X191681100Y-119926100D03*
G04 #@! TO.P,E$21,16*
X194221100Y-119926100D03*
G04 #@! TO.P,E$21,15*
X194221100Y-119926100D03*
G04 #@! TO.P,E$21,14*
X196761100Y-119926100D03*
G04 #@! TO.P,E$21,13*
X199301100Y-119926100D03*
G04 #@! TO.P,E$21,12*
X189141100Y-119926100D03*
G04 #@! TO.P,E$21,11*
X191681100Y-119926100D03*
G04 #@! TO.P,E$21,10*
X194221100Y-119926100D03*
G04 #@! TO.P,E$21,9*
X196761100Y-119926100D03*
G04 #@! TO.P,E$21,8*
X199301100Y-119926100D03*
G04 #@! TO.P,E$21,7*
X199301100Y-119926100D03*
G04 #@! TO.P,E$21,3*
X196761100Y-119926100D03*
G04 #@! TO.P,E$21,2*
G04 #@! TO.N,5V_PERIPHERALS*
X199301100Y-119926100D03*
G04 #@! TO.P,E$21,1*
G04 #@! TO.N,GND*
X201841100Y-119926100D03*
G04 #@! TO.P,E$21,6*
G04 #@! TO.N,S$62*
X189141100Y-119926100D03*
G04 #@! TO.P,E$21,5*
G04 #@! TO.N,S$51*
X191681100Y-119926100D03*
G04 #@! TO.P,E$21,4*
G04 #@! TO.N,N/C*
X194221100Y-119926100D03*
G04 #@! TD*
G04 #@! TO.P,E$22,18*
G04 #@! TO.N,N/C*
X189141100Y-133896100D03*
G04 #@! TO.P,E$22,17*
G04 #@! TO.N,S$48*
X191681100Y-133896100D03*
G04 #@! TO.P,E$22,16*
G04 #@! TO.N,N/C*
X194221100Y-133896100D03*
G04 #@! TO.P,E$22,15*
X194221100Y-133896100D03*
G04 #@! TO.P,E$22,14*
X196761100Y-133896100D03*
G04 #@! TO.P,E$22,13*
X199301100Y-133896100D03*
G04 #@! TO.P,E$22,12*
X189141100Y-133896100D03*
G04 #@! TO.P,E$22,11*
G04 #@! TO.N,S$48*
X191681100Y-133896100D03*
G04 #@! TO.P,E$22,10*
G04 #@! TO.N,N/C*
X194221100Y-133896100D03*
G04 #@! TO.P,E$22,9*
X196761100Y-133896100D03*
G04 #@! TO.P,E$22,8*
X199301100Y-133896100D03*
G04 #@! TO.P,E$22,7*
X199301100Y-133896100D03*
G04 #@! TO.P,E$22,3*
X196761100Y-133896100D03*
G04 #@! TO.P,E$22,2*
G04 #@! TO.N,5V_PERIPHERALS*
X199301100Y-133896100D03*
G04 #@! TO.P,E$22,1*
G04 #@! TO.N,GND*
X201841100Y-133896100D03*
G04 #@! TO.P,E$22,6*
G04 #@! TO.N,S$34*
X189141100Y-133896100D03*
G04 #@! TO.P,E$22,5*
G04 #@! TO.N,S$48*
X191681100Y-133896100D03*
G04 #@! TO.P,E$22,4*
G04 #@! TO.N,N/C*
X194221100Y-133896100D03*
G04 #@! TD*
G04 #@! TO.P,E$23,18*
G04 #@! TO.N,N/C*
X189141100Y-140881100D03*
G04 #@! TO.P,E$23,17*
X191681100Y-140881100D03*
G04 #@! TO.P,E$23,16*
X194221100Y-140881100D03*
G04 #@! TO.P,E$23,15*
X194221100Y-140881100D03*
G04 #@! TO.P,E$23,14*
X196761100Y-140881100D03*
G04 #@! TO.P,E$23,13*
X199301100Y-140881100D03*
G04 #@! TO.P,E$23,12*
X189141100Y-140881100D03*
G04 #@! TO.P,E$23,11*
X191681100Y-140881100D03*
G04 #@! TO.P,E$23,10*
X194221100Y-140881100D03*
G04 #@! TO.P,E$23,9*
X196761100Y-140881100D03*
G04 #@! TO.P,E$23,8*
X199301100Y-140881100D03*
G04 #@! TO.P,E$23,7*
X199301100Y-140881100D03*
G04 #@! TO.P,E$23,3*
X196761100Y-140881100D03*
G04 #@! TO.P,E$23,2*
G04 #@! TO.N,5V_PERIPHERALS*
X199301100Y-140881100D03*
G04 #@! TO.P,E$23,1*
G04 #@! TO.N,GND*
X201841100Y-140881100D03*
G04 #@! TO.P,E$23,6*
G04 #@! TO.N,S$53*
X189141100Y-140881100D03*
G04 #@! TO.P,E$23,5*
G04 #@! TO.N,S$2*
X191681100Y-140881100D03*
G04 #@! TO.P,E$23,4*
G04 #@! TO.N,N/C*
X194221100Y-140881100D03*
G04 #@! TD*
D13*
G04 #@! TO.P,E$24,-*
G04 #@! TO.N,N/C*
X202171300Y-126911100D03*
G04 #@! TO.P,E$24,+*
X198970900Y-126911100D03*
G04 #@! TD*
G04 #@! TO.P,E$25,2*
G04 #@! TO.N,N/C*
X180848000Y-121412000D03*
G04 #@! TO.P,E$25,1*
X177292000Y-121412000D03*
G04 #@! TD*
G04 #@! TO.P,E$26,2*
G04 #@! TO.N,N/C*
X184569100Y-123444000D03*
G04 #@! TO.P,E$26,1*
X181013100Y-123444000D03*
G04 #@! TD*
D17*
G04 #@! TO.P,E$27,2*
G04 #@! TO.N,N/C*
X176885600Y-130086100D03*
G04 #@! TO.P,E$27,1*
X181711600Y-130086100D03*
G04 #@! TD*
D13*
G04 #@! TO.P,E$28,2*
G04 #@! TO.N,N/C*
X167551100Y-121323100D03*
G04 #@! TO.P,E$28,1*
X167551100Y-124879100D03*
G04 #@! TD*
G04 #@! TO.P,E$29,2*
G04 #@! TO.N,N/C*
X170091100Y-121323100D03*
G04 #@! TO.P,E$29,1*
X170091100Y-124879100D03*
G04 #@! TD*
D17*
G04 #@! TO.P,E$30,2*
G04 #@! TO.N,N/C*
X162598100Y-130721100D03*
G04 #@! TO.P,E$30,1*
X167424100Y-130721100D03*
G04 #@! TD*
D13*
G04 #@! TO.P,E$31,2*
G04 #@! TO.N,N/C*
X198475600Y-145008600D03*
G04 #@! TO.P,E$31,1*
G04 #@! TO.N,GND*
X202031600Y-145008600D03*
G04 #@! TD*
D17*
G04 #@! TO.P,E$32,18*
G04 #@! TO.N,N/C*
X171996100Y-144691100D03*
G04 #@! TO.P,E$32,17*
X174536100Y-144691100D03*
G04 #@! TO.P,E$32,16*
X177076100Y-144691100D03*
G04 #@! TO.P,E$32,15*
X177076100Y-144691100D03*
G04 #@! TO.P,E$32,14*
X179616100Y-144691100D03*
G04 #@! TO.P,E$32,13*
X182156100Y-144691100D03*
G04 #@! TO.P,E$32,12*
X171996100Y-144691100D03*
G04 #@! TO.P,E$32,11*
X174536100Y-144691100D03*
G04 #@! TO.P,E$32,10*
X177076100Y-144691100D03*
G04 #@! TO.P,E$32,9*
X179616100Y-144691100D03*
G04 #@! TO.P,E$32,8*
X182156100Y-144691100D03*
G04 #@! TO.P,E$32,7*
X182156100Y-144691100D03*
G04 #@! TO.P,E$32,3*
X179616100Y-144691100D03*
G04 #@! TO.P,E$32,2*
G04 #@! TO.N,3.3V*
X182156100Y-144691100D03*
G04 #@! TO.P,E$32,1*
G04 #@! TO.N,GND*
X184696100Y-144691100D03*
G04 #@! TO.P,E$32,6*
G04 #@! TO.N,S$100*
X171996100Y-144691100D03*
G04 #@! TO.P,E$32,5*
G04 #@! TO.N,S$57*
X174536100Y-144691100D03*
G04 #@! TO.P,E$32,4*
G04 #@! TO.N,N/C*
X177076100Y-144691100D03*
G04 #@! TD*
G04 #@! TO.P,MCT2E.,P$6*
G04 #@! TO.N,N/C*
X142240000Y-124460000D03*
G04 #@! TO.P,MCT2E.,P$5*
G04 #@! TO.N,S$100*
X144780000Y-124460000D03*
G04 #@! TO.P,MCT2E.,P$4*
G04 #@! TO.N,S$61*
X147320000Y-124460000D03*
G04 #@! TO.P,MCT2E.,P$3*
G04 #@! TO.N,S$71*
X142240000Y-132080000D03*
G04 #@! TO.P,MCT2E.,P$2*
G04 #@! TO.N,S$74*
X144780000Y-132080000D03*
G04 #@! TO.P,MCT2E.,P$1*
G04 #@! TO.N,N/C*
X147320000Y-132080000D03*
G04 #@! TD*
G04 #@! TO.P,E$34,1*
G04 #@! TO.N,S$61*
X140620700Y-127000000D03*
G04 #@! TO.P,E$34,2*
G04 #@! TO.N,3.3V*
X149002800Y-127000000D03*
G04 #@! TD*
G04 #@! TO.P,E$35,3*
G04 #@! TO.N,S$74*
X145796000Y-145796000D03*
G04 #@! TO.P,E$35,2*
G04 #@! TO.N,S$36*
X143256000Y-145796000D03*
G04 #@! TO.P,E$35,1*
G04 #@! TO.N,S$71*
X140716000Y-145796000D03*
G04 #@! TD*
G04 #@! TO.P,E$36,1*
G04 #@! TO.N,S$74*
X140620700Y-129540000D03*
G04 #@! TO.P,E$36,2*
G04 #@! TO.N,S$36*
X149002800Y-129540000D03*
G04 #@! TD*
D14*
G04 #@! TO.P,E$38,2*
G04 #@! TO.N,N/C*
X100876100Y-110381100D03*
G04 #@! TO.P,E$38,3*
G04 #@! TO.N,5V_PERIPHERALS*
X103426100Y-112941100D03*
G04 #@! TO.P,E$38,1*
G04 #@! TO.N,N/C*
X98326100Y-112941100D03*
G04 #@! TD*
D17*
G04 #@! TO.P,E$37,18*
G04 #@! TO.N,S$55*
X77724000Y-141986000D03*
G04 #@! TO.P,E$37,17*
G04 #@! TO.N,S$107*
X77724000Y-139446000D03*
G04 #@! TO.P,E$37,16*
G04 #@! TO.N,N/C*
X77724000Y-136906000D03*
G04 #@! TO.P,E$37,15*
X77724000Y-136906000D03*
G04 #@! TO.P,E$37,14*
X77724000Y-134366000D03*
G04 #@! TO.P,E$37,13*
G04 #@! TO.N,5V_PERIPHERALS*
X77724000Y-131826000D03*
G04 #@! TO.P,E$37,12*
G04 #@! TO.N,S$55*
X77724000Y-141986000D03*
G04 #@! TO.P,E$37,11*
G04 #@! TO.N,S$107*
X77724000Y-139446000D03*
G04 #@! TO.P,E$37,10*
G04 #@! TO.N,N/C*
X77724000Y-136906000D03*
G04 #@! TO.P,E$37,9*
X77724000Y-134366000D03*
G04 #@! TO.P,E$37,8*
G04 #@! TO.N,5V_PERIPHERALS*
X77724000Y-131826000D03*
G04 #@! TO.P,E$37,7*
X77724000Y-131826000D03*
G04 #@! TO.P,E$37,3*
G04 #@! TO.N,N/C*
X77724000Y-134366000D03*
G04 #@! TO.P,E$37,2*
G04 #@! TO.N,5V_PERIPHERALS*
X77724000Y-131826000D03*
G04 #@! TO.P,E$37,1*
G04 #@! TO.N,GND*
X77724000Y-129286000D03*
G04 #@! TO.P,E$37,6*
G04 #@! TO.N,S$55*
X77724000Y-141986000D03*
G04 #@! TO.P,E$37,5*
G04 #@! TO.N,S$107*
X77724000Y-139446000D03*
G04 #@! TO.P,E$37,4*
G04 #@! TO.N,N/C*
X77724000Y-136906000D03*
G04 #@! TD*
G04 #@! TO.P,E$50,3*
G04 #@! TO.N,S$105*
X112941100Y-98971100D03*
G04 #@! TO.P,E$50,2*
G04 #@! TO.N,5V_SHARP*
X110401100Y-98971100D03*
G04 #@! TO.P,E$50,1*
G04 #@! TO.N,GND*
X107861100Y-98971100D03*
G04 #@! TD*
G04 #@! TO.P,E$52,3*
G04 #@! TO.N,S$113*
X112941100Y-91986100D03*
G04 #@! TO.P,E$52,2*
G04 #@! TO.N,5V_SHARP*
X110401100Y-91986100D03*
G04 #@! TO.P,E$52,1*
G04 #@! TO.N,GND*
X107861100Y-91986100D03*
G04 #@! TD*
G04 #@! TO.P,E$53,3*
G04 #@! TO.N,S$124*
X112941100Y-83731100D03*
G04 #@! TO.P,E$53,2*
G04 #@! TO.N,5V_SHARP*
X110401100Y-83731100D03*
G04 #@! TO.P,E$53,1*
G04 #@! TO.N,GND*
X107861100Y-83731100D03*
G04 #@! TD*
G04 #@! TO.P,E$54,3*
G04 #@! TO.N,S$123*
X112941100Y-75476100D03*
G04 #@! TO.P,E$54,2*
G04 #@! TO.N,5V_SHARP*
X110401100Y-75476100D03*
G04 #@! TO.P,E$54,1*
G04 #@! TO.N,GND*
X107861100Y-75476100D03*
G04 #@! TD*
G04 #@! TO.P,E$55,3*
G04 #@! TO.N,S$44*
X112941100Y-67221100D03*
G04 #@! TO.P,E$55,2*
G04 #@! TO.N,5V_SHARP*
X110401100Y-67221100D03*
G04 #@! TO.P,E$55,1*
G04 #@! TO.N,GND*
X107861100Y-67221100D03*
G04 #@! TD*
D14*
G04 #@! TO.P,E$56,2*
G04 #@! TO.N,S$75*
X89446100Y-90081100D03*
G04 #@! TO.P,E$56,3*
G04 #@! TO.N,GND*
X89446100Y-92621100D03*
G04 #@! TO.P,E$56,4*
G04 #@! TO.N,N/C*
X89446100Y-95161100D03*
G04 #@! TO.P,E$56,5*
G04 #@! TO.N,3.3V*
X89446100Y-97701100D03*
G04 #@! TO.P,E$56,6*
G04 #@! TO.N,GND*
X91986100Y-97701100D03*
G04 #@! TO.P,E$56,7*
X91986100Y-95161100D03*
G04 #@! TO.P,E$56,8*
G04 #@! TO.N,S$140*
X91986100Y-92621100D03*
G04 #@! TO.P,E$56,9*
G04 #@! TO.N,S$122*
X91986100Y-90081100D03*
G04 #@! TO.P,E$56,10*
G04 #@! TO.N,S$121*
X91986100Y-87541100D03*
G04 #@! TO.P,E$56,1*
G04 #@! TO.N,S$118*
X89446100Y-87541100D03*
G04 #@! TD*
G04 #@! TO.P,E$64,2*
G04 #@! TO.N,S$25*
X200253600Y-62458600D03*
G04 #@! TO.P,E$64,3*
G04 #@! TO.N,S$161*
X202793600Y-62458600D03*
G04 #@! TO.P,E$64,4*
G04 #@! TO.N,S$21*
X205333600Y-62458600D03*
G04 #@! TO.P,E$64,5*
G04 #@! TO.N,GND*
X207873600Y-62458600D03*
G04 #@! TO.P,E$64,6*
X207873600Y-59918600D03*
G04 #@! TO.P,E$64,7*
G04 #@! TO.N,S$166*
X205333600Y-59918600D03*
G04 #@! TO.P,E$64,8*
G04 #@! TO.N,S$170*
X202793600Y-59918600D03*
G04 #@! TO.P,E$64,9*
G04 #@! TO.N,S$9*
X200253600Y-59918600D03*
G04 #@! TO.P,E$64,10*
G04 #@! TO.N,12V*
X197713600Y-59918600D03*
G04 #@! TO.P,E$64,1*
X197713600Y-62458600D03*
G04 #@! TD*
G04 #@! TO.P,E$65,2*
G04 #@! TO.N,S$165*
X183743600Y-54203600D03*
G04 #@! TO.P,E$65,3*
G04 #@! TO.N,S$91*
X186283600Y-54203600D03*
G04 #@! TO.P,E$65,4*
G04 #@! TO.N,S$164*
X188823600Y-54203600D03*
G04 #@! TO.P,E$65,5*
G04 #@! TO.N,GND*
X191363600Y-54203600D03*
G04 #@! TO.P,E$65,6*
X191363600Y-51663600D03*
G04 #@! TO.P,E$65,7*
G04 #@! TO.N,S$163*
X188823600Y-51663600D03*
G04 #@! TO.P,E$65,8*
G04 #@! TO.N,S$169*
X186283600Y-51663600D03*
G04 #@! TO.P,E$65,9*
G04 #@! TO.N,S$168*
X183743600Y-51663600D03*
G04 #@! TO.P,E$65,10*
G04 #@! TO.N,12V*
X181203600Y-51663600D03*
G04 #@! TO.P,E$65,1*
X181203600Y-54203600D03*
G04 #@! TD*
D17*
G04 #@! TO.P,E$59,3*
G04 #@! TO.N,S$110*
X102781100Y-81826100D03*
G04 #@! TO.P,E$59,2*
G04 #@! TO.N,5V_SHARP*
X100241100Y-81826100D03*
G04 #@! TO.P,E$59,1*
G04 #@! TO.N,GND*
X97701100Y-81826100D03*
G04 #@! TD*
G04 #@! TO.P,E$60,3*
G04 #@! TO.N,S$126*
X90081100Y-65316100D03*
G04 #@! TO.P,E$60,2*
G04 #@! TO.N,S$120*
X90081100Y-67856100D03*
G04 #@! TO.P,E$60,1*
G04 #@! TO.N,S$116*
X90081100Y-70396100D03*
G04 #@! TD*
D13*
G04 #@! TO.P,E$51,2*
G04 #@! TO.N,N/C*
X112179100Y-71666100D03*
G04 #@! TO.P,E$51,1*
X108623100Y-71666100D03*
G04 #@! TD*
G04 #@! TO.P,E$61,2*
G04 #@! TO.N,N/C*
X112179100Y-79603600D03*
G04 #@! TO.P,E$61,1*
X108623100Y-79603600D03*
G04 #@! TD*
G04 #@! TO.P,E$62,2*
G04 #@! TO.N,N/C*
X112179100Y-87541100D03*
G04 #@! TO.P,E$62,1*
X108623100Y-87541100D03*
G04 #@! TD*
G04 #@! TO.P,E$57,2*
G04 #@! TO.N,N/C*
X101384100Y-69761100D03*
G04 #@! TO.P,E$57,1*
X97828100Y-69761100D03*
G04 #@! TD*
G04 #@! TO.P,E$66,2*
G04 #@! TO.N,N/C*
X102019100Y-77381100D03*
G04 #@! TO.P,E$66,1*
X98463100Y-77381100D03*
G04 #@! TD*
G04 #@! TO.P,E$67,2*
G04 #@! TO.N,N/C*
X101384100Y-86271100D03*
G04 #@! TO.P,E$67,1*
X97828100Y-86271100D03*
G04 #@! TD*
D19*
G04 #@! TO.P,E$63,SW2_*
G04 #@! TO.N,N/C*
X102527100Y-100526800D03*
G04 #@! TO.P,E$63,SW1_*
X96050100Y-100526800D03*
G04 #@! TO.P,E$63,SW2*
X102527100Y-105035400D03*
G04 #@! TO.P,E$63,SW1*
G04 #@! TO.N,S$140*
X96050100Y-105035400D03*
G04 #@! TD*
D17*
G04 #@! TO.P,MCT2E,P$6*
G04 #@! TO.N,N/C*
X102781100Y-59601100D03*
G04 #@! TO.P,MCT2E,P$5*
G04 #@! TO.N,S$130*
X102781100Y-62141100D03*
G04 #@! TO.P,MCT2E,P$4*
G04 #@! TO.N,S$127*
X102781100Y-64681100D03*
G04 #@! TO.P,MCT2E,P$3*
G04 #@! TO.N,S$116*
X95161100Y-59601100D03*
G04 #@! TO.P,MCT2E,P$2*
G04 #@! TO.N,S$126*
X95161100Y-62141100D03*
G04 #@! TO.P,MCT2E,P$1*
G04 #@! TO.N,N/C*
X95161100Y-64681100D03*
G04 #@! TD*
G04 #@! TO.P,E$69,1*
G04 #@! TO.N,N/C*
X97701100Y-65665400D03*
G04 #@! TO.P,E$69,2*
X97701100Y-57283300D03*
G04 #@! TD*
G04 #@! TO.P,E$70,1*
G04 #@! TO.N,N/C*
X100241100Y-65030400D03*
G04 #@! TO.P,E$70,2*
X100241100Y-56648300D03*
G04 #@! TD*
D20*
G04 #@! TO.P,780-05,3*
G04 #@! TO.N,N/C*
X216446100Y-120637300D03*
G04 #@! TO.P,780-05,1*
G04 #@! TO.N,12V*
X211366100Y-120637300D03*
G04 #@! TO.P,780-05,2*
G04 #@! TO.N,N/C*
X213906100Y-120637300D03*
D21*
G04 #@! TO.P,780-05,TAB*
X213906100Y-112306100D03*
G04 #@! TD*
D17*
G04 #@! TO.P,MCT2E\002C,P$6*
G04 #@! TO.N,N/C*
X166154100Y-151549100D03*
G04 #@! TO.P,MCT2E\002C,P$5*
G04 #@! TO.N,S$135*
X166154100Y-154089100D03*
G04 #@! TO.P,MCT2E\002C,P$4*
G04 #@! TO.N,S$3*
X166154100Y-156629100D03*
G04 #@! TO.P,MCT2E\002C,P$3*
G04 #@! TO.N,S$134*
X158534100Y-151549100D03*
G04 #@! TO.P,MCT2E\002C,P$2*
G04 #@! TO.N,S$41*
X158534100Y-154089100D03*
G04 #@! TO.P,MCT2E\002C,P$1*
G04 #@! TO.N,N/C*
X158534100Y-156629100D03*
G04 #@! TD*
G04 #@! TO.P,E$74,1*
G04 #@! TO.N,N/C*
X163614100Y-158883400D03*
G04 #@! TO.P,E$74,2*
G04 #@! TO.N,3.3V*
X163614100Y-150501300D03*
G04 #@! TD*
G04 #@! TO.P,E$75,1*
G04 #@! TO.N,S$137*
X161074100Y-158883400D03*
G04 #@! TO.P,E$75,2*
G04 #@! TO.N,N/C*
X161074100Y-150501300D03*
G04 #@! TD*
G04 #@! TO.P,E$76,3*
G04 #@! TO.N,S$41*
X153924000Y-150876000D03*
G04 #@! TO.P,E$76,2*
G04 #@! TO.N,S$137*
X151384000Y-150876000D03*
G04 #@! TO.P,E$76,1*
G04 #@! TO.N,S$134*
X148844000Y-150876000D03*
G04 #@! TD*
G04 #@! TO.P,E$84,18*
G04 #@! TO.N,N/C*
X88493600Y-53251100D03*
G04 #@! TO.P,E$84,17*
G04 #@! TO.N,S$140*
X91033600Y-53251100D03*
G04 #@! TO.P,E$84,16*
G04 #@! TO.N,N/C*
X93573600Y-53251100D03*
G04 #@! TO.P,E$84,15*
X93573600Y-53251100D03*
G04 #@! TO.P,E$84,14*
X96113600Y-53251100D03*
G04 #@! TO.P,E$84,13*
X98653600Y-53251100D03*
G04 #@! TO.P,E$84,12*
X88493600Y-53251100D03*
G04 #@! TO.P,E$84,11*
G04 #@! TO.N,S$140*
X91033600Y-53251100D03*
G04 #@! TO.P,E$84,10*
G04 #@! TO.N,N/C*
X93573600Y-53251100D03*
G04 #@! TO.P,E$84,9*
X96113600Y-53251100D03*
G04 #@! TO.P,E$84,8*
X98653600Y-53251100D03*
G04 #@! TO.P,E$84,7*
X98653600Y-53251100D03*
G04 #@! TO.P,E$84,3*
G04 #@! TO.N,S$130*
X96113600Y-53251100D03*
G04 #@! TO.P,E$84,2*
G04 #@! TO.N,5V_SHARP*
X98653600Y-53251100D03*
G04 #@! TO.P,E$84,1*
G04 #@! TO.N,GND*
X101193600Y-53251100D03*
G04 #@! TO.P,E$84,6*
G04 #@! TO.N,S$177*
X88493600Y-53251100D03*
G04 #@! TO.P,E$84,5*
G04 #@! TO.N,S$140*
X91033600Y-53251100D03*
G04 #@! TO.P,E$84,4*
G04 #@! TO.N,S$44*
X93573600Y-53251100D03*
G04 #@! TD*
D13*
G04 #@! TO.P,E$90,-*
G04 #@! TO.N,N/C*
X104990900Y-60553600D03*
G04 #@! TO.P,E$90,+*
X108191300Y-60553600D03*
G04 #@! TD*
D17*
G04 #@! TO.P,E$106,18*
G04 #@! TO.N,N/C*
X151041100Y-53886100D03*
G04 #@! TO.P,E$106,17*
X153581100Y-53886100D03*
G04 #@! TO.P,E$106,16*
X156121100Y-53886100D03*
G04 #@! TO.P,E$106,15*
X156121100Y-53886100D03*
G04 #@! TO.P,E$106,14*
X158661100Y-53886100D03*
G04 #@! TO.P,E$106,13*
X161201100Y-53886100D03*
G04 #@! TO.P,E$106,12*
X151041100Y-53886100D03*
G04 #@! TO.P,E$106,11*
X153581100Y-53886100D03*
G04 #@! TO.P,E$106,10*
X156121100Y-53886100D03*
G04 #@! TO.P,E$106,9*
X158661100Y-53886100D03*
G04 #@! TO.P,E$106,8*
X161201100Y-53886100D03*
G04 #@! TO.P,E$106,7*
X161201100Y-53886100D03*
G04 #@! TO.P,E$106,3*
G04 #@! TO.N,S$68*
X158661100Y-53886100D03*
G04 #@! TO.P,E$106,2*
G04 #@! TO.N,S$76*
X161201100Y-53886100D03*
G04 #@! TO.P,E$106,1*
G04 #@! TO.N,S$181*
X163741100Y-53886100D03*
G04 #@! TO.P,E$106,6*
G04 #@! TO.N,S$185*
X151041100Y-53886100D03*
G04 #@! TO.P,E$106,5*
G04 #@! TO.N,S$179*
X153581100Y-53886100D03*
G04 #@! TO.P,E$106,4*
G04 #@! TO.N,S$171*
X156121100Y-53886100D03*
G04 #@! TD*
D22*
G04 #@! TO.P,E$108,P$2*
G04 #@! TO.N,12V*
X218033600Y-73888600D03*
G04 #@! TO.P,E$108,P$1*
G04 #@! TO.N,GND*
X218033600Y-68808600D03*
G04 #@! TD*
G04 #@! TO.P,E$109,P$2*
G04 #@! TO.N,12V*
X218033600Y-84048600D03*
G04 #@! TO.P,E$109,P$1*
G04 #@! TO.N,GND*
X218033600Y-78968600D03*
G04 #@! TD*
D20*
G04 #@! TO.P,780-05.,3*
G04 #@! TO.N,5V_PERIPHERALS*
X218668600Y-152704800D03*
G04 #@! TO.P,780-05.,1*
G04 #@! TO.N,12V*
X213588600Y-152704800D03*
G04 #@! TO.P,780-05.,2*
G04 #@! TO.N,GND*
X216128600Y-152704800D03*
D21*
G04 #@! TO.P,780-05.,TAB*
G04 #@! TO.N,N/C*
X216128600Y-144373600D03*
G04 #@! TD*
D23*
G04 #@! TO.P,AMS1117,4*
G04 #@! TO.N,N/C*
X204381100Y-74599600D03*
D24*
G04 #@! TO.P,AMS1117,3*
X206692500Y-80797400D03*
G04 #@! TO.P,AMS1117,2*
X204381100Y-80797400D03*
G04 #@! TO.P,AMS1117,1*
X202069700Y-80797400D03*
G04 #@! TD*
D17*
G04 #@! TO.P,E$113,7*
G04 #@! TO.N,5V_SHARP*
X166281100Y-58331100D03*
G04 #@! TO.P,E$113,6*
G04 #@! TO.N,S$181*
X163741100Y-58331100D03*
G04 #@! TO.P,E$113,5*
G04 #@! TO.N,S$76*
X161201100Y-58331100D03*
G04 #@! TO.P,E$113,1*
G04 #@! TO.N,S$185*
X151041100Y-58331100D03*
G04 #@! TO.P,E$113,2*
G04 #@! TO.N,S$179*
X153581100Y-58331100D03*
G04 #@! TO.P,E$113,3*
G04 #@! TO.N,S$171*
X156121100Y-58331100D03*
G04 #@! TO.P,E$113,4*
G04 #@! TO.N,S$68*
X158661100Y-58331100D03*
G04 #@! TD*
D25*
G04 #@! TO.P,R1,2*
G04 #@! TO.N,N/C*
X217846100Y-55791100D03*
G04 #@! TO.P,R1,1*
X215046100Y-55791100D03*
G04 #@! TD*
G04 #@! TO.P,LED1,2*
G04 #@! TO.N,N/C*
X212448600Y-55791100D03*
G04 #@! TO.P,LED1,1*
X209648600Y-55791100D03*
G04 #@! TD*
G04 #@! TO.P,R,2*
G04 #@! TO.N,N/C*
X215623600Y-51663600D03*
G04 #@! TO.P,R,1*
X212823600Y-51663600D03*
G04 #@! TD*
G04 #@! TO.P,LED,2*
G04 #@! TO.N,N/C*
X208956100Y-52616100D03*
G04 #@! TO.P,LED,1*
X206156100Y-52616100D03*
G04 #@! TD*
D13*
G04 #@! TO.P,E$118,-*
G04 #@! TO.N,N/C*
X211061300Y-46583600D03*
G04 #@! TO.P,E$118,+*
G04 #@! TO.N,12V*
X207860900Y-46583600D03*
G04 #@! TD*
G04 #@! TO.P,E$119,-*
G04 #@! TO.N,N/C*
X204393800Y-93573600D03*
G04 #@! TO.P,E$119,+*
X201193400Y-93573600D03*
G04 #@! TD*
G04 #@! TO.P,E$120,-*
G04 #@! TO.N,N/C*
X215480900Y-128181100D03*
G04 #@! TO.P,E$120,+*
G04 #@! TO.N,5V_SHARP*
X218681300Y-128181100D03*
G04 #@! TD*
G04 #@! TO.P,E$121,-*
G04 #@! TO.N,GND*
X205740000Y-158419800D03*
G04 #@! TO.P,E$121,+*
G04 #@! TO.N,5V_PERIPHERALS*
X205740000Y-161620200D03*
G04 #@! TD*
D26*
G04 #@! TO.P,LED3,2*
G04 #@! TO.N,S$140*
X90081100Y-57566100D03*
G04 #@! TO.P,LED3,1*
G04 #@! TO.N,3.3V*
X90081100Y-60366100D03*
G04 #@! TD*
D25*
G04 #@! TO.P,LED2,2*
G04 #@! TO.N,N/C*
X101958600Y-45631100D03*
G04 #@! TO.P,LED2,1*
X99158600Y-45631100D03*
G04 #@! TD*
D13*
G04 #@! TO.P,E$141,-*
G04 #@! TO.N,GND*
X88480900Y-44996100D03*
G04 #@! TO.P,E$141,+*
G04 #@! TO.N,12V*
X91681300Y-44996100D03*
G04 #@! TD*
D14*
G04 #@! TO.P,E$7,2*
G04 #@! TO.N,S$27*
X193903600Y-98018600D03*
G04 #@! TO.P,E$7,3*
G04 #@! TO.N,S$13*
X193903600Y-95478600D03*
G04 #@! TO.P,E$7,4*
G04 #@! TO.N,N/C*
X193903600Y-92938600D03*
G04 #@! TO.P,E$7,5*
G04 #@! TO.N,S$33*
X193903600Y-90398600D03*
G04 #@! TO.P,E$7,6*
X191363600Y-90398600D03*
G04 #@! TO.P,E$7,7*
G04 #@! TO.N,N/C*
X191363600Y-92938600D03*
G04 #@! TO.P,E$7,8*
G04 #@! TO.N,S$24*
X191363600Y-95478600D03*
G04 #@! TO.P,E$7,9*
G04 #@! TO.N,S$17*
X191363600Y-98018600D03*
G04 #@! TO.P,E$7,10*
G04 #@! TO.N,12V*
X191363600Y-100558600D03*
G04 #@! TO.P,E$7,1*
X193903600Y-100558600D03*
G04 #@! TD*
G04 #@! TO.P,E$8,2*
G04 #@! TO.N,N/C*
X184696100Y-86906100D03*
G04 #@! TO.P,E$8,3*
X184696100Y-84366100D03*
G04 #@! TO.P,E$8,4*
G04 #@! TO.N,S$10*
X184696100Y-81826100D03*
G04 #@! TO.P,E$8,5*
G04 #@! TO.N,GND*
X184696100Y-79286100D03*
G04 #@! TO.P,E$8,6*
X182156100Y-79286100D03*
G04 #@! TO.P,E$8,7*
G04 #@! TO.N,S$6*
X182156100Y-81826100D03*
G04 #@! TO.P,E$8,8*
G04 #@! TO.N,S$19*
X182156100Y-84366100D03*
G04 #@! TO.P,E$8,9*
G04 #@! TO.N,S$22*
X182156100Y-86906100D03*
G04 #@! TO.P,E$8,10*
G04 #@! TO.N,5V_SHARP*
X182156100Y-89446100D03*
G04 #@! TO.P,E$8,1*
X184696100Y-89446100D03*
G04 #@! TD*
D17*
G04 #@! TO.P,E$9,3*
G04 #@! TO.N,S$54*
X160566100Y-90398600D03*
G04 #@! TO.P,E$9,2*
G04 #@! TO.N,S$52*
X158026100Y-90398600D03*
G04 #@! TO.P,E$9,1*
G04 #@! TO.N,S$8*
X155486100Y-90398600D03*
G04 #@! TD*
G04 #@! TO.P,E$48,3*
G04 #@! TO.N,S$83*
X151041100Y-90398600D03*
G04 #@! TO.P,E$48,2*
G04 #@! TO.N,S$86*
X148501100Y-90398600D03*
G04 #@! TO.P,E$48,1*
G04 #@! TO.N,S$65*
X145961100Y-90398600D03*
G04 #@! TD*
D27*
G04 #@! TO.P,E$49,1*
G04 #@! TO.N,5V_SHARP*
X186601100Y-131825600D03*
G04 #@! TO.P,E$49,2*
G04 #@! TO.N,N/C*
X186601100Y-128981600D03*
G04 #@! TD*
G04 #@! TO.P,E$71,1*
G04 #@! TO.N,5V_SHARP*
X172313600Y-132143100D03*
G04 #@! TO.P,E$71,2*
G04 #@! TO.N,N/C*
X172313600Y-129299100D03*
G04 #@! TD*
D28*
G04 #@! TO.P,E$73,1*
G04 #@! TO.N,N/C*
X172161600Y-109448600D03*
G04 #@! TO.P,E$73,2*
G04 #@! TO.N,5V_SHARP*
X175005600Y-109448600D03*
G04 #@! TD*
D17*
G04 #@! TO.P,E$83,18*
G04 #@! TO.N,N/C*
X80238600Y-62776100D03*
G04 #@! TO.P,E$83,17*
X80238600Y-65316100D03*
G04 #@! TO.P,E$83,16*
X80238600Y-67856100D03*
G04 #@! TO.P,E$83,15*
X80238600Y-67856100D03*
G04 #@! TO.P,E$83,14*
X80238600Y-70396100D03*
G04 #@! TO.P,E$83,13*
X80238600Y-72936100D03*
G04 #@! TO.P,E$83,12*
X80238600Y-62776100D03*
G04 #@! TO.P,E$83,11*
X80238600Y-65316100D03*
G04 #@! TO.P,E$83,10*
X80238600Y-67856100D03*
G04 #@! TO.P,E$83,9*
X80238600Y-70396100D03*
G04 #@! TO.P,E$83,8*
X80238600Y-72936100D03*
G04 #@! TO.P,E$83,7*
X80238600Y-72936100D03*
G04 #@! TO.P,E$83,3*
G04 #@! TO.N,S$105*
X80238600Y-70396100D03*
G04 #@! TO.P,E$83,2*
G04 #@! TO.N,3.3V*
X80238600Y-72936100D03*
G04 #@! TO.P,E$83,1*
G04 #@! TO.N,GND*
X80238600Y-75476100D03*
G04 #@! TO.P,E$83,6*
G04 #@! TO.N,S$44*
X80238600Y-62776100D03*
G04 #@! TO.P,E$83,5*
G04 #@! TO.N,S$88*
X80238600Y-65316100D03*
G04 #@! TO.P,E$83,4*
G04 #@! TO.N,S$110*
X80238600Y-67856100D03*
G04 #@! TD*
D13*
G04 #@! TO.P,E$85,2*
G04 #@! TO.N,N/C*
X85001100Y-78460600D03*
G04 #@! TO.P,E$85,1*
X85001100Y-82016600D03*
G04 #@! TD*
G04 #@! TO.P,E$86,2*
G04 #@! TO.N,N/C*
X126403100Y-79921100D03*
G04 #@! TO.P,E$86,1*
X129959100Y-79921100D03*
G04 #@! TD*
D17*
G04 #@! TO.P,E$95,1*
G04 #@! TO.N,N/C*
X163614100Y-158883400D03*
G04 #@! TO.P,E$95,2*
G04 #@! TO.N,3.3V*
X163614100Y-150501300D03*
G04 #@! TD*
D29*
G04 #@! TO.P,E$103,2*
G04 #@! TO.N,N/C*
X190116000Y-156464000D03*
G04 #@! TO.P,E$103,1*
G04 #@! TO.N,GND*
X192916000Y-156464000D03*
G04 #@! TD*
D30*
G04 #@! TO.P,E$104,2*
G04 #@! TO.N,N/C*
X189992000Y-160652000D03*
G04 #@! TO.P,E$104,1*
G04 #@! TO.N,5V_PERIPHERALS*
X189992000Y-163452000D03*
G04 #@! TD*
D31*
G04 #@! TO.N,*
X127508000Y-138684000D03*
X111252000Y-136652000D03*
G04 #@! TO.N,S$54*
X161836100Y-91668600D03*
D32*
X181864000Y-112268006D03*
G04 #@! TO.N,S$53*
X158661100Y-113576100D03*
D31*
G04 #@! TO.N,S$2*
X191681100Y-142468600D03*
D32*
G04 #@! TO.N,S$52*
X178981098Y-112776000D03*
D31*
G04 #@! TO.N,S$34*
X189141100Y-131673600D03*
D32*
G04 #@! TO.N,S$55*
X123736100Y-104686100D03*
D33*
G04 #@! TO.N,S$110*
X95796100Y-83096100D03*
X104051100Y-80556100D03*
D31*
G04 #@! TO.N,S$118*
X103416100Y-93891100D03*
G04 #@! TO.N,S$121*
X102146100Y-95796100D03*
G04 #@! TO.N,S$122*
X102146100Y-97701100D03*
G04 #@! TO.N,S$116*
X91986100Y-70396100D03*
G04 #@! TO.N,S$163*
X190728600Y-49441100D03*
G04 #@! TO.N,S$164*
X184378600Y-59601100D03*
G04 #@! TO.N,S$91*
X185648600Y-56426100D03*
G04 #@! TO.N,S$165*
X178346100Y-55791100D03*
G04 #@! TO.N,S$25*
X196443600Y-65316100D03*
G04 #@! TO.N,S$161*
X196443600Y-67221100D03*
G04 #@! TO.N,S$170*
X199301100Y-54838600D03*
G04 #@! TO.N,3.3V*
X182791100Y-146596100D03*
X204063600Y-128498600D03*
X201841100Y-91668600D03*
X206921100Y-87223600D03*
X207873600Y-55791100D03*
D34*
X197713600Y-50393600D03*
D33*
X198348600Y-87223600D03*
X78333600Y-72936100D03*
D35*
X148183600Y-57061100D03*
X163614100Y-150501300D03*
D31*
G04 #@! TO.N,S$140*
X93472000Y-130556000D03*
X84836000Y-122428000D03*
X91033600Y-51219100D03*
X87541100Y-61061600D03*
X98336100Y-98844100D03*
X89446100Y-74079100D03*
G04 #@! TO.N,S$130*
X97383600Y-47536100D03*
X113576100Y-64046100D03*
G04 #@! TO.N,5V_PERIPHERALS*
X102108000Y-151384000D03*
X209143600Y-89128600D03*
D33*
X198348600Y-117068600D03*
D31*
X198983600Y-131038600D03*
D33*
X212852000Y-134112000D03*
D31*
G04 #@! TO.N,S$177*
X114846100Y-54203600D03*
X114211100Y-61823600D03*
G04 #@! TO.N,S$171*
X141833600Y-78016100D03*
D32*
G04 #@! TO.N,S$107*
X127546100Y-102146100D03*
D31*
G04 #@! TO.N,S$65*
X144373600Y-89128600D03*
G04 #@! TO.N,S$83*
X145643600Y-95161100D03*
G04 #@! TO.N,S$86*
X144691100Y-92621100D03*
D33*
G04 #@! TO.N,S$88*
X104686100Y-73571100D03*
D31*
X115798600Y-75793600D03*
D33*
X94208600Y-75476100D03*
D31*
G04 #@! TO.N,GND*
X207873600Y-64998600D03*
D33*
X190093600Y-71031100D03*
D31*
X107861100Y-68808600D03*
X199618600Y-44678600D03*
X221526100Y-68808600D03*
X192633600Y-52616100D03*
X96431100Y-97701100D03*
X101511100Y-90081100D03*
X105003600Y-45948600D03*
D36*
X213906100Y-120561100D03*
D31*
X97701100Y-71666100D03*
D37*
X79921100Y-55156100D03*
D32*
X196761100Y-122466100D03*
X201841100Y-122466100D03*
D31*
X201841100Y-138976100D03*
X105321100Y-110401100D03*
D33*
X105321100Y-58966100D03*
X89128600Y-42456100D03*
X209778600Y-45313600D03*
X204381100Y-91986100D03*
X214223600Y-126911100D03*
D31*
X161544000Y-43726100D03*
X213360000Y-68580000D03*
X111988600Y-43726100D03*
X157480000Y-43688000D03*
D33*
G04 #@! TO.N,5V_SHARP*
X216408000Y-134620000D03*
D35*
X180848000Y-132080000D03*
X200152000Y-112268000D03*
X203708000Y-115824000D03*
X206248000Y-104648000D03*
X208788000Y-97536000D03*
D31*
X98653600Y-51346100D03*
X109448600Y-65633600D03*
X167233600Y-48806100D03*
X199301100Y-48171100D03*
X204381100Y-48171100D03*
D36*
X216446100Y-120561100D03*
D33*
X107861100Y-58966100D03*
D31*
X187452000Y-114808000D03*
D35*
X216408000Y-100076000D03*
D33*
X197612000Y-137160000D03*
D31*
G04 #@! TO.N,12V*
X91668600Y-46901100D03*
X195808600Y-62458600D03*
X205016100Y-45631100D03*
D33*
X199936100Y-107861100D03*
D31*
X206603600Y-94526100D03*
X221526100Y-73888600D03*
X170408600Y-53568600D03*
X175806100Y-41821100D03*
X181203600Y-52933600D03*
D33*
X213588600Y-151041100D03*
X208508600Y-126276100D03*
D36*
X213588600Y-152946100D03*
D31*
X160566100Y-46266100D03*
D36*
X209319890Y-120109244D03*
D31*
X148336000Y-46228000D03*
G04 #@! TO.N,S$21*
X199936100Y-69126100D03*
D33*
G04 #@! TO.N,S$24*
X181838600Y-95478600D03*
D31*
G04 #@! TO.N,S$8*
X155486100Y-91986100D03*
D33*
G04 #@! TO.N,S$84*
X188856100Y-82228600D03*
D31*
G04 #@! TO.N,S$44*
X93573600Y-51028600D03*
D33*
X112306100Y-65951100D03*
X80238600Y-61188600D03*
G04 #@! TO.N,S$105*
X78333600Y-70396100D03*
X93256100Y-79921100D03*
X104686100Y-77698600D03*
X105638600Y-97383600D03*
X85001100Y-79921100D03*
G04 #@! TD*
D38*
G04 #@! TO.N,*
X126654947Y-138684000D02*
X127508000Y-138684000D01*
X111252000Y-136652000D02*
X111252000Y-137505053D01*
X111252000Y-137505053D02*
X112430947Y-138684000D01*
X112430947Y-138684000D02*
X126654947Y-138684000D01*
X212636100Y-55791100D02*
X214858600Y-55791100D01*
X209778600Y-51663600D02*
X212636100Y-51663600D01*
X209778600Y-51663600D02*
X209143600Y-52298600D01*
X189992000Y-160652000D02*
X189992000Y-156080000D01*
G04 #@! TO.N,S$5*
X123101100Y-87541100D02*
X123736100Y-86906100D01*
X123736100Y-86906100D02*
X131991100Y-86906100D01*
G04 #@! TO.N,S$54*
X168821100Y-97701100D02*
X165963600Y-94843600D01*
X165011100Y-94843600D02*
X161836100Y-91668600D01*
X165963600Y-94843600D02*
X165011100Y-94843600D01*
X161836100Y-91668600D02*
X160566100Y-90398600D01*
X177642913Y-131867290D02*
X175682290Y-131867290D01*
X179616100Y-133896100D02*
X179616100Y-133840477D01*
X181356001Y-112776005D02*
X181864000Y-112268006D01*
X179616100Y-133840477D02*
X177642913Y-131867290D01*
X175682290Y-131867290D02*
X174536100Y-130721100D01*
X174536100Y-119595906D02*
X181356001Y-112776005D01*
X174536100Y-130721100D02*
X174536100Y-119595906D01*
G04 #@! TO.N,S$53*
X156121100Y-101511100D02*
X158661100Y-104051100D01*
X145326100Y-101511100D02*
X156121100Y-101511100D01*
X144056100Y-100241100D02*
X145326100Y-101511100D01*
X124371100Y-100241100D02*
X144056100Y-100241100D01*
X123101100Y-98971100D02*
X124371100Y-100241100D01*
X123101100Y-98971100D02*
X123101100Y-97701100D01*
X158661100Y-104051100D02*
X158661100Y-113576100D01*
D39*
G04 #@! TO.N,S$46*
X163106100Y-103416100D02*
X161836100Y-102146100D01*
X164376100Y-103416100D02*
X163106100Y-103416100D01*
X166281100Y-105321100D02*
X164376100Y-103416100D01*
X166281100Y-105956100D02*
X166281100Y-105321100D01*
D38*
G04 #@! TO.N,S$62*
X161836100Y-113576100D02*
X163741100Y-113576100D01*
X160566100Y-112306100D02*
X161836100Y-113576100D01*
X160566100Y-103416100D02*
X160566100Y-112306100D01*
X156756100Y-99606100D02*
X160566100Y-103416100D01*
X145961100Y-98971100D02*
X145961100Y-97701100D01*
X146596100Y-99606100D02*
X145961100Y-98971100D01*
X146596100Y-99606100D02*
X156756100Y-99606100D01*
G04 #@! TO.N,S$59*
X177076100Y-123101100D02*
X177076100Y-121831100D01*
X179616100Y-125641100D02*
X177076100Y-123101100D01*
X179616100Y-126276100D02*
X179616100Y-125641100D01*
G04 #@! TO.N,S$2*
X191681100Y-140881100D02*
X191681100Y-142468600D01*
X191681100Y-139611100D02*
X191681100Y-140881100D01*
X190411100Y-138341100D02*
X191681100Y-139611100D01*
X187871100Y-138341100D02*
X190411100Y-138341100D01*
X185648600Y-140563600D02*
X187871100Y-138341100D01*
X182473600Y-140563600D02*
X185648600Y-140563600D01*
X170091100Y-134531100D02*
X170091100Y-137071100D01*
X180251100Y-138341100D02*
X182473600Y-140563600D01*
X171361100Y-138341100D02*
X180251100Y-138341100D01*
X170091100Y-137071100D02*
X171361100Y-138341100D01*
G04 #@! TO.N,S$52*
X160248600Y-131356100D02*
X160248600Y-125323600D01*
X160248600Y-125323600D02*
X166281100Y-119291100D01*
X167551100Y-134475477D02*
X165577913Y-132502290D01*
X161394790Y-132502290D02*
X160248600Y-131356100D01*
X165577913Y-132502290D02*
X161394790Y-132502290D01*
X167551100Y-134531100D02*
X167551100Y-134475477D01*
X166281100Y-119291100D02*
X172465998Y-119291100D01*
X178473099Y-113283999D02*
X178981098Y-112776000D01*
X172465998Y-119291100D02*
X178473099Y-113283999D01*
G04 #@! TO.N,S$34*
X153581100Y-79921100D02*
X153581100Y-72301100D01*
X168186100Y-94526100D02*
X153581100Y-79921100D01*
D40*
X171361100Y-97701100D02*
X168186100Y-94526100D01*
D38*
X189141100Y-133896100D02*
X189141100Y-131673600D01*
X189141100Y-134531100D02*
X189141100Y-133896100D01*
X178028600Y-136118600D02*
X187553600Y-136118600D01*
X187553600Y-136118600D02*
X189141100Y-134531100D01*
X177076100Y-135166100D02*
X177076100Y-133896100D01*
X177076100Y-135166100D02*
X178028600Y-136118600D01*
X172072299Y-98412299D02*
X171361100Y-97701100D01*
X189141100Y-125133100D02*
X184096001Y-120088001D01*
X184096001Y-120088001D02*
X184096001Y-110436001D01*
X189141100Y-131673600D02*
X189141100Y-125133100D01*
X184096001Y-110436001D02*
X172072299Y-98412299D01*
G04 #@! TO.N,S$36*
X149860000Y-130397200D02*
X149002800Y-129540000D01*
X149860000Y-133604000D02*
X149860000Y-130397200D01*
X143256000Y-145796000D02*
X143256000Y-140208000D01*
X143256000Y-140208000D02*
X149860000Y-133604000D01*
D39*
G04 #@! TO.N,S$55*
X123698000Y-104648000D02*
X123736100Y-104686100D01*
X112941100Y-105321100D02*
X113614200Y-104648000D01*
X113614200Y-104648000D02*
X123698000Y-104648000D01*
D38*
X79028220Y-141986000D02*
X77724000Y-141986000D01*
X95030220Y-125984000D02*
X79028220Y-141986000D01*
X97536000Y-125984000D02*
X95030220Y-125984000D01*
X109220000Y-114300000D02*
X97536000Y-125984000D01*
X112941100Y-105321100D02*
X109220000Y-109042200D01*
X109220000Y-109042200D02*
X109220000Y-114300000D01*
G04 #@! TO.N,S$4*
X133896100Y-93256100D02*
X134531100Y-92621100D01*
X128816100Y-93256100D02*
X133896100Y-93256100D01*
X128181100Y-92621100D02*
X128816100Y-93256100D01*
X128181100Y-91986100D02*
X128181100Y-92621100D01*
X125006100Y-88811100D02*
X128181100Y-91986100D01*
D40*
X120561100Y-88811100D02*
X124371100Y-88811100D01*
D38*
X124371100Y-88811100D02*
X125006100Y-88811100D01*
D39*
G04 #@! TO.N,S$110*
X102781100Y-81826100D02*
X104051100Y-80556100D01*
X104051100Y-80556100D02*
X107226100Y-77381100D01*
X107226100Y-77381100D02*
X118656100Y-77381100D01*
X118656100Y-77381100D02*
X119926100Y-76111100D01*
X119926100Y-76111100D02*
X120561100Y-76111100D01*
X102781100Y-81826100D02*
X102781100Y-82778600D01*
X96748600Y-84048600D02*
X95796100Y-83096100D01*
X101511100Y-84048600D02*
X96748600Y-84048600D01*
X102781100Y-82778600D02*
X101511100Y-84048600D01*
G04 #@! TO.N,S$118*
X103416100Y-93891100D02*
X114211100Y-93891100D01*
D40*
X118656100Y-90081100D02*
X123101100Y-90081100D01*
D39*
X118021100Y-90081100D02*
X118656100Y-90081100D01*
X114211100Y-93891100D02*
X118021100Y-90081100D01*
G04 #@! TO.N,S$121*
X114846100Y-95796100D02*
X119291100Y-91351100D01*
X102146100Y-95796100D02*
X114846100Y-95796100D01*
X119291100Y-91351100D02*
X120561100Y-91351100D01*
G04 #@! TO.N,S$122*
X119291100Y-93891100D02*
X120561100Y-93891100D01*
X102146100Y-97701100D02*
X102781100Y-97701100D01*
X102781100Y-97701100D02*
X105956100Y-100876100D01*
X105956100Y-100876100D02*
X114211100Y-100876100D01*
X114211100Y-100876100D02*
X115481100Y-99606100D01*
X115481100Y-99606100D02*
X115481100Y-97701100D01*
X115481100Y-97701100D02*
X119291100Y-93891100D01*
D38*
G04 #@! TO.N,S$116*
X91351100Y-70396100D02*
X92621100Y-69126100D01*
X90081100Y-70396100D02*
X91351100Y-70396100D01*
X91986100Y-70396100D02*
X90081100Y-70396100D01*
X90081100Y-70396100D02*
X91668600Y-70396100D01*
X92621100Y-69443600D02*
X92621100Y-69126100D01*
X91668600Y-70396100D02*
X92621100Y-69443600D01*
X92621100Y-69126100D02*
X93005112Y-68742088D01*
X93005112Y-61757088D02*
X94272101Y-60490099D01*
X93005112Y-68742088D02*
X93005112Y-61757088D01*
X94272101Y-60490099D02*
X95161100Y-59601100D01*
G04 #@! TO.N,S$112*
X129032000Y-64262000D02*
X129032000Y-66548000D01*
X125641100Y-69938900D02*
X125641100Y-72301100D01*
X129032000Y-66548000D02*
X125641100Y-69938900D01*
G04 #@! TO.N,S$129*
X128181100Y-70446900D02*
X128181100Y-72301100D01*
X131572000Y-64262000D02*
X131572000Y-67056000D01*
X131572000Y-67056000D02*
X128181100Y-70446900D01*
G04 #@! TO.N,S$128*
X134112000Y-64262000D02*
X134112000Y-67564000D01*
X130721100Y-70954900D02*
X130721100Y-72301100D01*
X134112000Y-67564000D02*
X130721100Y-70954900D01*
G04 #@! TO.N,S$163*
X188823600Y-50711100D02*
X188823600Y-51663600D01*
X190093600Y-49441100D02*
X188823600Y-50711100D01*
X190728600Y-49441100D02*
X190093600Y-49441100D01*
X171361100Y-66903600D02*
X176758600Y-61506100D01*
X171361100Y-72301100D02*
X171361100Y-66903600D01*
X176758600Y-61506100D02*
X188429900Y-61506100D01*
X188429900Y-61506100D02*
X194856100Y-55079900D01*
X193268600Y-49441100D02*
X190728600Y-49441100D01*
X194856100Y-55079900D02*
X194856100Y-51028600D01*
X194856100Y-51028600D02*
X193268600Y-49441100D01*
G04 #@! TO.N,S$164*
X168821100Y-72301100D02*
X168821100Y-66268600D01*
X175488600Y-59601100D02*
X184378600Y-59601100D01*
X168821100Y-66268600D02*
X175488600Y-59601100D01*
X188823600Y-57061100D02*
X188823600Y-54203600D01*
X184378600Y-59601100D02*
X186283600Y-59601100D01*
X186283600Y-59601100D02*
X188823600Y-57061100D01*
G04 #@! TO.N,S$91*
X185648600Y-56426100D02*
X186283600Y-55791100D01*
X186283600Y-55791100D02*
X186283600Y-54203600D01*
X184378600Y-57696100D02*
X185648600Y-56426100D01*
X174536100Y-57696100D02*
X184378600Y-57696100D01*
X162471100Y-69761100D02*
X174536100Y-57696100D01*
X160248600Y-69761100D02*
X162471100Y-69761100D01*
X158661100Y-72301100D02*
X158661100Y-71348600D01*
X158661100Y-71348600D02*
X160248600Y-69761100D01*
G04 #@! TO.N,S$165*
X173583600Y-55791100D02*
X178346100Y-55791100D01*
X161836100Y-67538600D02*
X173583600Y-55791100D01*
X159613600Y-67538600D02*
X161836100Y-67538600D01*
X156121100Y-71031100D02*
X159613600Y-67538600D01*
X156121100Y-72301100D02*
X156121100Y-71031100D01*
G04 #@! TO.N,S$25*
X175806100Y-68808600D02*
X179298600Y-65316100D01*
X179298600Y-65316100D02*
X196443600Y-65316100D01*
D40*
X171361100Y-77381100D02*
X175171100Y-77381100D01*
D39*
X175171100Y-77381100D02*
X175806100Y-76746100D01*
X175806100Y-76746100D02*
X175806100Y-70396100D01*
D38*
X175806100Y-70396100D02*
X175806100Y-68808600D01*
X196443600Y-65316100D02*
X198348600Y-65316100D01*
X198348600Y-65316100D02*
X200253600Y-63411100D01*
X200253600Y-63411100D02*
X200253600Y-62458600D01*
D39*
G04 #@! TO.N,S$161*
X173901100Y-78651100D02*
X174536100Y-78651100D01*
X173901100Y-78651100D02*
X175171100Y-78651100D01*
D38*
X196443600Y-67221100D02*
X199301100Y-67221100D01*
X202793600Y-63728600D02*
X202793600Y-62458600D01*
X199301100Y-67221100D02*
X202793600Y-63728600D01*
D39*
X177711100Y-77381100D02*
X177711100Y-70396100D01*
X173901100Y-78651100D02*
X176441100Y-78651100D01*
X176441100Y-78651100D02*
X177711100Y-77381100D01*
D38*
X181190900Y-67221100D02*
X196443600Y-67221100D01*
X178015900Y-70396100D02*
X181190900Y-67221100D01*
G04 #@! TO.N,S$170*
X188823600Y-63411100D02*
X189141100Y-63411100D01*
X173901100Y-67538600D02*
X178028600Y-63411100D01*
X178028600Y-63411100D02*
X188823600Y-63411100D01*
X173901100Y-73571100D02*
X173901100Y-67538600D01*
X190728600Y-63411100D02*
X199301100Y-54838600D01*
X188823600Y-63411100D02*
X190728600Y-63411100D01*
G04 #@! TO.N,S$181*
X143421100Y-72301100D02*
X143421100Y-70078600D01*
X143421100Y-70078600D02*
X146278600Y-67221100D01*
X146278600Y-67221100D02*
X149453600Y-67221100D01*
X149453600Y-67221100D02*
X153898600Y-62776100D01*
X153898600Y-62776100D02*
X160248600Y-62776100D01*
X160248600Y-62776100D02*
X163741100Y-59283600D01*
X163741100Y-59283600D02*
X163741100Y-58331100D01*
G04 #@! TO.N,3.3V*
X182156100Y-144691100D02*
X182156100Y-142786100D01*
X168821100Y-140246100D02*
X167551100Y-138976100D01*
X179616100Y-140246100D02*
X168821100Y-140246100D01*
X182156100Y-142786100D02*
X179616100Y-140246100D01*
X201841100Y-115798600D02*
X204698600Y-118656100D01*
X201841100Y-93573600D02*
X201841100Y-115798600D01*
D39*
X201841100Y-93573600D02*
X201206100Y-93573600D01*
D38*
X201841100Y-91668600D02*
X201841100Y-93573600D01*
X207873600Y-55791100D02*
X209143600Y-55791100D01*
X204698600Y-127863600D02*
X204063600Y-128498600D01*
X204698600Y-118656100D02*
X204698600Y-127863600D01*
X182156100Y-145961100D02*
X182156100Y-144691100D01*
X182791100Y-146596100D02*
X182156100Y-145961100D01*
D39*
X201841100Y-88811100D02*
X201841100Y-91668600D01*
X200253600Y-87223600D02*
X201841100Y-88811100D01*
X198348600Y-87223600D02*
X200253600Y-87223600D01*
D40*
X173901100Y-76111100D02*
X170726100Y-76111100D01*
D38*
X168821100Y-78016100D02*
X167551100Y-79286100D01*
D41*
X170726100Y-76111100D02*
X168821100Y-78016100D01*
D38*
X204381100Y-80556100D02*
X204381100Y-84683600D01*
X204381100Y-84683600D02*
X206921100Y-87223600D01*
X86906100Y-96748600D02*
X88176100Y-98018600D01*
D39*
X96431100Y-55473600D02*
X99606100Y-55473600D01*
X99606100Y-55473600D02*
X100241100Y-56108600D01*
X100241100Y-56108600D02*
X100241100Y-56743600D01*
X100241100Y-56743600D02*
X99923600Y-56743600D01*
X100241100Y-56743600D02*
X100558600Y-56743600D01*
D38*
X88176100Y-98018600D02*
X89128600Y-98018600D01*
D40*
X120561100Y-83731100D02*
X124371100Y-83731100D01*
D38*
X131038600Y-82778600D02*
X132943600Y-80873600D01*
X125323600Y-82778600D02*
X131038600Y-82778600D01*
X125006100Y-83096100D02*
X125323600Y-82778600D01*
D40*
X124371100Y-83731100D02*
X125006100Y-83096100D01*
D39*
X116751100Y-83731100D02*
X120561100Y-83731100D01*
X102781100Y-88176100D02*
X104051100Y-86906100D01*
X90081100Y-100241100D02*
X93256100Y-100241100D01*
X89446100Y-99606100D02*
X90081100Y-100241100D01*
X89446100Y-97701100D02*
X89446100Y-99606100D01*
X114846100Y-81826100D02*
X116751100Y-83731100D01*
X104051100Y-86906100D02*
X104051100Y-83731100D01*
X105956100Y-81826100D02*
X114846100Y-81826100D01*
X104051100Y-83731100D02*
X105956100Y-81826100D01*
X93256100Y-100241100D02*
X94208600Y-99288600D01*
X98971100Y-88176100D02*
X102781100Y-88176100D01*
X96431100Y-90716100D02*
X98971100Y-88176100D01*
X96431100Y-94526100D02*
X96431100Y-90716100D01*
X94208600Y-96748600D02*
X96431100Y-94526100D01*
X94208600Y-96748600D02*
X94208600Y-99288600D01*
D38*
X89128600Y-98018600D02*
X89446100Y-97701100D01*
X86906100Y-96748600D02*
X86906100Y-94843600D01*
X86906100Y-94843600D02*
X86906100Y-93891100D01*
X86906100Y-93891100D02*
X86906100Y-92938600D01*
X86906100Y-92938600D02*
X86906100Y-85636100D01*
X86906100Y-85636100D02*
X86906100Y-85318600D01*
X86906100Y-85318600D02*
X86906100Y-84683600D01*
X86906100Y-84683600D02*
X86906100Y-83731100D01*
D39*
X80238600Y-72936100D02*
X81508600Y-72936100D01*
X81508600Y-72936100D02*
X82461100Y-73888600D01*
X82461100Y-73888600D02*
X82461100Y-82778600D01*
X82461100Y-82778600D02*
X84366100Y-84683600D01*
X84366100Y-84683600D02*
X85953600Y-84683600D01*
X86906100Y-84683600D02*
X86271100Y-84683600D01*
X86906100Y-83731100D02*
X85953600Y-84683600D01*
X85953600Y-84683600D02*
X86271100Y-84683600D01*
X86271100Y-84683600D02*
X86906100Y-85318600D01*
X85953600Y-84683600D02*
X86906100Y-85636100D01*
X80238600Y-72936100D02*
X78333600Y-72936100D01*
D38*
X148183600Y-57061100D02*
X148183600Y-57061100D01*
X160978900Y-138976100D02*
X167551100Y-138976100D01*
X149002800Y-127000000D02*
X160978900Y-138976100D01*
X86906100Y-64046100D02*
X90081100Y-60871100D01*
X86906100Y-83731100D02*
X86906100Y-64046100D01*
X90081100Y-60871100D02*
X90081100Y-60366100D01*
X95478600Y-55473600D02*
X96431100Y-55473600D01*
X90081100Y-60366100D02*
X90586100Y-60366100D01*
X90586100Y-60366100D02*
X95478600Y-55473600D01*
X148183600Y-53568600D02*
X148183600Y-57061100D01*
X151041100Y-50711100D02*
X148183600Y-53568600D01*
X175488600Y-50711100D02*
X151041100Y-50711100D01*
X178663600Y-47536100D02*
X175488600Y-50711100D01*
X197713600Y-50393600D02*
X194856100Y-47536100D01*
X194856100Y-47536100D02*
X178663600Y-47536100D01*
G04 #@! TO.N,S$140*
X93472000Y-130556000D02*
X100076000Y-130556000D01*
X100076000Y-130556000D02*
X112268000Y-142748000D01*
X112268000Y-142748000D02*
X112268000Y-148844000D01*
X87541100Y-61061600D02*
X87541100Y-60109100D01*
X87541100Y-61061600D02*
X87541100Y-59791600D01*
X87541100Y-61061600D02*
X87541100Y-58521600D01*
X87541100Y-58521600D02*
X87541100Y-58204100D01*
X87541100Y-58204100D02*
X87541100Y-56934100D01*
X91033600Y-54711600D02*
X91033600Y-53759100D01*
X89763600Y-55981600D02*
X91033600Y-54711600D01*
X88493600Y-55981600D02*
X89763600Y-55981600D01*
X87541100Y-56934100D02*
X88493600Y-55981600D01*
X88176100Y-57886600D02*
X90081100Y-57886600D01*
X88176100Y-57886600D02*
X87858600Y-57886600D01*
X87541100Y-58204100D02*
X87858600Y-57886600D01*
X87541100Y-58204100D02*
X87858600Y-58204100D01*
X87858600Y-58204100D02*
X88176100Y-57886600D01*
X87541100Y-58521600D02*
X87858600Y-58204100D01*
D39*
X92621100Y-93129100D02*
X93891100Y-91859100D01*
X91986100Y-93129100D02*
X92621100Y-93129100D01*
X119291100Y-86779100D02*
X120561100Y-86779100D01*
X98336100Y-98844100D02*
X100241100Y-96939100D01*
X100241100Y-96939100D02*
X100241100Y-93129100D01*
X100241100Y-93129100D02*
X100876100Y-92494100D01*
X100876100Y-92494100D02*
X104051100Y-92494100D01*
X104051100Y-92494100D02*
X105956100Y-90589100D01*
X105956100Y-90589100D02*
X115481100Y-90589100D01*
X115481100Y-90589100D02*
X119291100Y-86779100D01*
X93891100Y-91859100D02*
X93891100Y-85191600D01*
D38*
X91033600Y-51219100D02*
X91033600Y-53759100D01*
D39*
X89446100Y-74079100D02*
X91351100Y-75984100D01*
X91351100Y-75984100D02*
X91351100Y-82651600D01*
X91351100Y-82651600D02*
X93891100Y-85191600D01*
X89763600Y-57696100D02*
X90398600Y-57696100D01*
X98971100Y-99479100D02*
X98336100Y-98844100D01*
X98971100Y-102704900D02*
X98971100Y-99479100D01*
X96113600Y-105511600D02*
X96164400Y-105511600D01*
X96164400Y-105511600D02*
X98971100Y-102704900D01*
D38*
X84836000Y-116249500D02*
X95309743Y-105775757D01*
X84836000Y-122428000D02*
X84836000Y-116249500D01*
D39*
G04 #@! TO.N,S$130*
X96113600Y-53251100D02*
X96113600Y-53568600D01*
D38*
X97383600Y-47536100D02*
X97383600Y-46901100D01*
X97383600Y-46901100D02*
X98971100Y-45313600D01*
D39*
X104368600Y-47536100D02*
X97383600Y-47536100D01*
X111988600Y-55156100D02*
X104368600Y-47536100D01*
X113576100Y-64046100D02*
X111988600Y-62458600D01*
X111988600Y-62458600D02*
X111988600Y-55156100D01*
G04 #@! TO.N,S$82*
X184696100Y-126276100D02*
X185331100Y-126276100D01*
X185331100Y-126276100D02*
X186601100Y-127546100D01*
X186601100Y-127546100D02*
X186601100Y-128816100D01*
D38*
G04 #@! TO.N,5V_PERIPHERALS*
X206603600Y-82778600D02*
X206603600Y-80238600D01*
X209143600Y-85318600D02*
X206603600Y-82778600D01*
X209143600Y-89128600D02*
X209143600Y-85318600D01*
D39*
X198348600Y-117068600D02*
X199301100Y-118021100D01*
X199301100Y-118021100D02*
X199301100Y-119926100D01*
D38*
X198983600Y-131038600D02*
X198983600Y-133578600D01*
X198983600Y-133578600D02*
X199301100Y-133896100D01*
X209778600Y-131038600D02*
X212348801Y-133608801D01*
X212348801Y-133608801D02*
X212852000Y-134112000D01*
X198983600Y-131038600D02*
X209778600Y-131038600D01*
D42*
X77724000Y-131826000D02*
X78994000Y-131826000D01*
X77724000Y-131826000D02*
X78486000Y-131826000D01*
X78486000Y-131826000D02*
X78740000Y-131572000D01*
D38*
X218668600Y-154800300D02*
X214896700Y-158572200D01*
X218668600Y-152704800D02*
X218668600Y-154800300D01*
X214896700Y-158572200D02*
X214807800Y-158572200D01*
X211759800Y-161620200D02*
X205740000Y-161620200D01*
X214807800Y-158572200D02*
X211759800Y-161620200D01*
X203908200Y-163452000D02*
X205740000Y-161620200D01*
X189992000Y-163452000D02*
X203908200Y-163452000D01*
X82042000Y-131826000D02*
X78994000Y-131826000D01*
X92456000Y-121412000D02*
X82042000Y-131826000D01*
X103426100Y-112941100D02*
X94955200Y-121412000D01*
X94955200Y-121412000D02*
X92456000Y-121412000D01*
X105540000Y-163452000D02*
X189992000Y-163452000D01*
X102108000Y-151384000D02*
X102108000Y-160020000D01*
X102108000Y-160020000D02*
X105540000Y-163452000D01*
D39*
G04 #@! TO.N,S$177*
X114846100Y-54203600D02*
X114846100Y-56108600D01*
X114846100Y-61188600D02*
X114211100Y-61823600D01*
X114846100Y-54203600D02*
X114846100Y-61188600D01*
D38*
G04 #@! TO.N,S$171*
X156121100Y-59283600D02*
X156121100Y-58331100D01*
X154851100Y-60553600D02*
X156121100Y-59283600D01*
X152628600Y-60553600D02*
X154851100Y-60553600D01*
X148501100Y-64681100D02*
X152628600Y-60553600D01*
X144691100Y-64681100D02*
X148501100Y-64681100D01*
X140881100Y-68491100D02*
X144691100Y-64681100D01*
D40*
X140881100Y-69761100D02*
X140881100Y-68491100D01*
X139611100Y-71031100D02*
X140881100Y-69761100D01*
X139611100Y-76111100D02*
X139611100Y-71031100D01*
D39*
X141516100Y-78016100D02*
X139611100Y-76111100D01*
X141833600Y-78016100D02*
X141516100Y-78016100D01*
D38*
G04 #@! TO.N,S$107*
X126911100Y-102781100D02*
X127546100Y-102146100D01*
X93218000Y-123952000D02*
X96850200Y-123952000D01*
X77724000Y-139446000D02*
X93218000Y-123952000D01*
X96850200Y-123952000D02*
X107226100Y-113576100D01*
X107226100Y-113576100D02*
X107226100Y-108165900D01*
X107226100Y-108165900D02*
X112610900Y-102781100D01*
X112610900Y-102781100D02*
X126911100Y-102781100D01*
G04 #@! TO.N,S$65*
X123101100Y-95161100D02*
X134848600Y-95161100D01*
X140881100Y-89128600D02*
X144373600Y-89128600D01*
X134848600Y-95161100D02*
X140881100Y-89128600D01*
G04 #@! TO.N,S$83*
X140563600Y-95161100D02*
X145643600Y-95161100D01*
X138341100Y-97701100D02*
X138341100Y-97383600D01*
X138341100Y-97383600D02*
X140563600Y-95161100D01*
G04 #@! TO.N,S$86*
X135801100Y-97701100D02*
X135801100Y-97066100D01*
X140246100Y-92621100D02*
X144691100Y-92621100D01*
X135801100Y-97066100D02*
X140246100Y-92621100D01*
D39*
G04 #@! TO.N,S$88*
X114211100Y-73571100D02*
X115798600Y-75158600D01*
X102781100Y-73571100D02*
X104686100Y-73571100D01*
X104686100Y-73571100D02*
X114211100Y-73571100D01*
X115798600Y-75793600D02*
X115798600Y-75158600D01*
D38*
X102781100Y-73571100D02*
X102781100Y-74206100D01*
X101511100Y-75476100D02*
X94208600Y-75476100D01*
X102781100Y-74206100D02*
X101511100Y-75476100D01*
G04 #@! TO.N,S$92*
X102146100Y-45313600D02*
X102463600Y-45313600D01*
G04 #@! TO.N,S$33*
X191363600Y-90398600D02*
X193903600Y-90398600D01*
G04 #@! TO.N,GND*
X207873600Y-59918600D02*
X207873600Y-64998600D01*
X190093600Y-71031100D02*
X201523600Y-71031100D01*
X201523600Y-71031100D02*
X203746100Y-68808600D01*
X218033600Y-68808600D02*
X203746100Y-68808600D01*
X168186100Y-74841100D02*
X167551100Y-75476100D01*
X171361100Y-74841100D02*
X168186100Y-74841100D01*
D39*
X104686100Y-45631100D02*
X102463600Y-45631100D01*
X105003600Y-45948600D02*
X104686100Y-45631100D01*
D38*
X132626100Y-90716100D02*
X131991100Y-90716100D01*
X134531100Y-88811100D02*
X132626100Y-90716100D01*
X134531100Y-86271100D02*
X134531100Y-88811100D01*
X123101100Y-85001100D02*
X126276100Y-85001100D01*
X126593600Y-84683600D02*
X132943600Y-84683600D01*
X126276100Y-85001100D02*
X126593600Y-84683600D01*
D40*
X118021100Y-85001100D02*
X123101100Y-85001100D01*
D39*
X91986100Y-95161100D02*
X89446100Y-92621100D01*
X91986100Y-97701100D02*
X91986100Y-95161100D01*
X96431100Y-97701100D02*
X97066100Y-97066100D01*
X98336100Y-95796100D02*
X96431100Y-97701100D01*
X98336100Y-91351100D02*
X98336100Y-95796100D01*
X99606100Y-90081100D02*
X98336100Y-91351100D01*
X101511100Y-90081100D02*
X99606100Y-90081100D01*
D38*
X97701100Y-69761100D02*
X97701100Y-71666100D01*
X97701100Y-71666100D02*
X97701100Y-73571100D01*
X100241100Y-67221100D02*
X97701100Y-69761100D01*
X107861100Y-67221100D02*
X100241100Y-67221100D01*
X107861100Y-67221100D02*
X107861100Y-68491100D01*
D39*
X107861100Y-66903600D02*
X107861100Y-67221100D01*
X106273600Y-65316100D02*
X107861100Y-66903600D01*
D38*
X105638600Y-60553600D02*
X105003600Y-60553600D01*
X105638600Y-60553600D02*
X105956100Y-60553600D01*
X106273600Y-61188600D02*
X105638600Y-60553600D01*
D39*
X106273600Y-61188600D02*
X106273600Y-65316100D01*
X106273600Y-59918600D02*
X106273600Y-61188600D01*
X105321100Y-58966100D02*
X106273600Y-59918600D01*
D38*
X154216100Y-43726100D02*
X157391100Y-43726100D01*
X191363600Y-51663600D02*
X191363600Y-54203600D01*
X199618600Y-43726100D02*
X198666100Y-43726100D01*
X199618600Y-44678600D02*
X199618600Y-43726100D01*
X199618600Y-44678600D02*
X199618600Y-44361100D01*
X199618600Y-44678600D02*
X198666100Y-43726100D01*
X200253600Y-43726100D02*
X199618600Y-43726100D01*
X200253600Y-43726100D02*
X199618600Y-44361100D01*
X207873600Y-62458600D02*
X207873600Y-59918600D01*
X200571100Y-43726100D02*
X200253600Y-43726100D01*
X200571100Y-43726100D02*
X199618600Y-44678600D01*
X208191100Y-43726100D02*
X200571100Y-43726100D01*
X214223600Y-68808600D02*
X207873600Y-62458600D01*
X218033600Y-53568600D02*
X209778600Y-45313600D01*
X218033600Y-68808600D02*
X218033600Y-53568600D01*
X209778600Y-45313600D02*
X208191100Y-43726100D01*
X221526100Y-68808600D02*
X218033600Y-68808600D01*
X191363600Y-54203600D02*
X192633600Y-52933600D01*
X192633600Y-52933600D02*
X192633600Y-52616100D01*
X181838600Y-78968600D02*
X182156100Y-79286100D01*
X182156100Y-79286100D02*
X184696100Y-79286100D01*
X186283600Y-79286100D02*
X184696100Y-79286100D01*
X182156100Y-79286100D02*
X198031100Y-79286100D01*
X199936100Y-77381100D02*
X203746100Y-77381100D01*
X198031100Y-79286100D02*
X199936100Y-77381100D01*
X203746100Y-77381100D02*
X202158600Y-78968600D01*
X202158600Y-78968600D02*
X202158600Y-85318600D01*
X202158600Y-85318600D02*
X204381100Y-87541100D01*
X204381100Y-87541100D02*
X204381100Y-91986100D01*
X204381100Y-91986100D02*
X204381100Y-97701100D01*
X204381100Y-97701100D02*
X208191100Y-101511100D01*
X208191100Y-101511100D02*
X208191100Y-105956100D01*
X208191100Y-105956100D02*
X210413600Y-108178600D01*
X210413600Y-108178600D02*
X210413600Y-112623600D01*
X210413600Y-108178600D02*
X213906100Y-111671100D01*
X213906100Y-111671100D02*
X213906100Y-120561100D01*
X219303600Y-135166100D02*
X215493600Y-131356100D01*
X214223600Y-126911100D02*
X215493600Y-128181100D01*
X215493600Y-128181100D02*
X215493600Y-131356100D01*
X132943600Y-84683600D02*
X134531100Y-86271100D01*
X219303600Y-135166100D02*
X219303600Y-140881100D01*
X201841100Y-122466100D02*
X201841100Y-119926100D01*
X201841100Y-122466100D02*
X196761100Y-122466100D01*
X201841100Y-138976100D02*
X201841100Y-140881100D01*
X201841100Y-140881100D02*
X201841100Y-140563600D01*
X212636100Y-140881100D02*
X201841100Y-140881100D01*
X213588600Y-141833600D02*
X212636100Y-140881100D01*
X219303600Y-140881100D02*
X216128600Y-140881100D01*
X216128600Y-140881100D02*
X212636100Y-140881100D01*
X216128600Y-152946100D02*
X216128600Y-140881100D01*
X154216100Y-43726100D02*
X152311100Y-43726100D01*
X144691100Y-43726100D02*
X142786100Y-43726100D01*
X163741100Y-43726100D02*
X165963600Y-43726100D01*
X163741100Y-43726100D02*
X161836100Y-43726100D01*
X213906100Y-126593600D02*
X214223600Y-126911100D01*
X215900000Y-152933400D02*
X216128600Y-152704800D01*
X79756000Y-127254000D02*
X77724000Y-129286000D01*
X79756000Y-121412000D02*
X79756000Y-127254000D01*
X216128600Y-153250900D02*
X216128600Y-152704800D01*
X210883500Y-158496000D02*
X216128600Y-153250900D01*
X210820000Y-158496000D02*
X210883500Y-158496000D01*
X205740000Y-158419800D02*
X210743800Y-158419800D01*
X210743800Y-158419800D02*
X210820000Y-158496000D01*
X166281100Y-43726100D02*
X163741100Y-43726100D01*
X198666100Y-43726100D02*
X166281100Y-43726100D01*
X139446000Y-58928000D02*
X136652000Y-61722000D01*
X139700000Y-58928000D02*
X139446000Y-58928000D01*
X153612901Y-45015099D02*
X139700000Y-58928000D01*
X154216100Y-43726100D02*
X153612901Y-44329299D01*
X153612901Y-44329299D02*
X153612901Y-45015099D01*
D39*
X117386100Y-85636100D02*
X118021100Y-85001100D01*
X107861100Y-85636100D02*
X117386100Y-85636100D01*
X101511100Y-90081100D02*
X103416100Y-90081100D01*
X103416100Y-90081100D02*
X107861100Y-85636100D01*
D38*
X212318600Y-68808600D02*
X218033600Y-68808600D01*
X210413600Y-70713600D02*
X212318600Y-68808600D01*
X210413600Y-74574400D02*
X210413600Y-70713600D01*
X203746100Y-77381100D02*
X207606900Y-77381100D01*
X207606900Y-77381100D02*
X210413600Y-74574400D01*
X103124000Y-108204000D02*
X105321100Y-110401100D01*
X97536000Y-108204000D02*
X103124000Y-108204000D01*
X88392000Y-117348000D02*
X97536000Y-108204000D01*
X88392000Y-121615200D02*
X88392000Y-117348000D01*
X77724000Y-129286000D02*
X80721200Y-129286000D01*
X80721200Y-129286000D02*
X88392000Y-121615200D01*
X205740000Y-158419800D02*
X197535800Y-158419800D01*
X197535800Y-158419800D02*
X193979800Y-158419800D01*
X192916000Y-156464000D02*
X192916000Y-157356000D01*
X192916000Y-157356000D02*
X193979800Y-158419800D01*
X127508000Y-152586081D02*
X136465919Y-161544000D01*
X127508000Y-151384000D02*
X127508000Y-152586081D01*
X136465919Y-161544000D02*
X180848000Y-161544000D01*
X192916000Y-155832000D02*
X192916000Y-156464000D01*
X180848000Y-161544000D02*
X187960000Y-154432000D01*
X187960000Y-154432000D02*
X191516000Y-154432000D01*
X191516000Y-154432000D02*
X192916000Y-155832000D01*
X79756000Y-54991000D02*
X79921100Y-55156100D01*
X79756000Y-53721000D02*
X79756000Y-54991000D01*
X88493600Y-44983400D02*
X79756000Y-53721000D01*
X89128600Y-42456100D02*
X88493600Y-43091100D01*
X88493600Y-43091100D02*
X88493600Y-44983400D01*
D39*
X102781100Y-56426100D02*
X105321100Y-58966100D01*
D38*
X102781100Y-54838600D02*
X102781100Y-56426100D01*
X101193600Y-53251100D02*
X102781100Y-54838600D01*
X133578600Y-43726100D02*
X142786100Y-43726100D01*
X133578600Y-43726100D02*
X122466100Y-43726100D01*
X144691100Y-43726100D02*
X152311100Y-43726100D01*
X90398600Y-41186100D02*
X89128600Y-42456100D01*
X109448600Y-41186100D02*
X90398600Y-41186100D01*
X124053600Y-43726100D02*
X111988600Y-43726100D01*
X111988600Y-43726100D02*
X109448600Y-41186100D01*
G04 #@! TO.N,S$23*
X211366100Y-144056100D02*
X211366100Y-145326100D01*
D39*
G04 #@! TO.N,5V_SHARP*
X186601100Y-132626100D02*
X186601100Y-131673600D01*
X185331100Y-133896100D02*
X186601100Y-132626100D01*
X184696100Y-133896100D02*
X185331100Y-133896100D01*
X172631100Y-132308600D02*
X172313600Y-131991100D01*
X172631100Y-134531100D02*
X172631100Y-132308600D01*
D38*
X206248000Y-113284000D02*
X203708000Y-115824000D01*
X206248000Y-104648000D02*
X206248000Y-113284000D01*
D39*
X184061100Y-89446100D02*
X184696100Y-89446100D01*
X182156100Y-89446100D02*
X182791100Y-89446100D01*
X182156100Y-89446100D02*
X183426100Y-89446100D01*
X184061100Y-89446100D02*
X183426100Y-89446100D01*
X183426100Y-89446100D02*
X183426100Y-90081100D01*
X182791100Y-89446100D02*
X183426100Y-90081100D01*
X183426100Y-90081100D02*
X184061100Y-89446100D01*
D38*
X171361100Y-113576100D02*
X172313600Y-113576100D01*
X175171100Y-110718600D02*
X175171100Y-109131100D01*
X172313600Y-113576100D02*
X175171100Y-110718600D01*
X110401100Y-66586100D02*
X109448600Y-65633600D01*
D39*
X110401100Y-67221100D02*
X110401100Y-66268600D01*
D38*
X110401100Y-67221100D02*
X110401100Y-66586100D01*
X109448600Y-65633600D02*
X108178600Y-64363600D01*
D39*
X108178600Y-60871100D02*
X108178600Y-64046100D01*
D38*
X108178600Y-60553600D02*
X108178600Y-60871100D01*
D39*
X108178600Y-59283600D02*
X108178600Y-60553600D01*
X107861100Y-58966100D02*
X108178600Y-59283600D01*
X101828600Y-51028600D02*
X99923600Y-51028600D01*
D38*
X99288600Y-51028600D02*
X101828600Y-51028600D01*
X98653600Y-51663600D02*
X99288600Y-51028600D01*
X98653600Y-53251100D02*
X98653600Y-51663600D01*
D39*
X98653600Y-52298600D02*
X98653600Y-52616100D01*
D38*
X98653600Y-53251100D02*
X98653600Y-52298600D01*
X206286100Y-50076100D02*
X206286100Y-52933600D01*
X204381100Y-48171100D02*
X206286100Y-50076100D01*
X108178600Y-64363600D02*
X108178600Y-60871100D01*
X218668600Y-128181100D02*
X218668600Y-126911100D01*
X218668600Y-126911100D02*
X216446100Y-124688600D01*
X216446100Y-124688600D02*
X216446100Y-120561100D01*
X216446100Y-120561100D02*
X216446100Y-120243600D01*
D39*
X187452000Y-107696000D02*
X187452000Y-114808000D01*
X183426100Y-90081100D02*
X183426100Y-103670100D01*
X183426100Y-103670100D02*
X187452000Y-107696000D01*
D38*
X200152000Y-112268000D02*
X196088000Y-112268000D01*
X193548000Y-114808000D02*
X187452000Y-114808000D01*
X196088000Y-112268000D02*
X193548000Y-114808000D01*
X208788000Y-97536000D02*
X213868000Y-97536000D01*
X213868000Y-97536000D02*
X216408000Y-100076000D01*
X216408000Y-100076000D02*
X216408000Y-100076000D01*
D42*
X183467549Y-133701918D02*
X184178916Y-134413285D01*
X183467549Y-133096000D02*
X183467549Y-133701918D01*
X180848000Y-132080000D02*
X182451549Y-132080000D01*
X182451549Y-132080000D02*
X183467549Y-133096000D01*
D38*
X213868000Y-137160000D02*
X216408000Y-134620000D01*
X197612000Y-137160000D02*
X213868000Y-137160000D01*
X174218600Y-48806100D02*
X167233600Y-48806100D01*
X177393600Y-45631100D02*
X174218600Y-48806100D01*
X199301100Y-48171100D02*
X196761100Y-45631100D01*
X196761100Y-45631100D02*
X177393600Y-45631100D01*
D39*
X107861100Y-56108600D02*
X107861100Y-58966100D01*
X101828600Y-51028600D02*
X102781100Y-51028600D01*
X102781100Y-51028600D02*
X107861100Y-56108600D01*
D38*
G04 #@! TO.N,12V*
X91668600Y-44996100D02*
X91351100Y-44996100D01*
X91668600Y-44996100D02*
X91668600Y-46901100D01*
X126492000Y-61722000D02*
X126492000Y-64262000D01*
D39*
X203746100Y-45631100D02*
X205016100Y-45631100D01*
X202158600Y-56426100D02*
X201206100Y-57378600D01*
X201206100Y-57378600D02*
X199301100Y-57378600D01*
X199301100Y-57378600D02*
X197713600Y-58966100D01*
X197713600Y-58966100D02*
X197713600Y-59918600D01*
D38*
X197713600Y-59918600D02*
X197713600Y-62458600D01*
D39*
X202158600Y-47218600D02*
X203746100Y-45631100D01*
X202158600Y-47218600D02*
X202158600Y-56426100D01*
D38*
X197713600Y-62458600D02*
X195808600Y-62458600D01*
X191363600Y-100558600D02*
X198348600Y-100558600D01*
X199936100Y-102146100D02*
X199936100Y-107861100D01*
X198348600Y-100558600D02*
X199936100Y-102146100D01*
X218033600Y-73888600D02*
X213588600Y-73888600D01*
X213588600Y-73888600D02*
X212636100Y-74841100D01*
X212636100Y-74841100D02*
X212636100Y-88811100D01*
X212636100Y-88811100D02*
X206921100Y-94526100D01*
X206921100Y-94526100D02*
X206603600Y-94526100D01*
X181203600Y-51663600D02*
X181203600Y-52933600D01*
X181203600Y-54203600D02*
X181203600Y-52933600D01*
X179933600Y-52933600D02*
X181203600Y-51663600D01*
X170408600Y-53568600D02*
X171043600Y-52933600D01*
X179933600Y-52933600D02*
X181203600Y-54203600D01*
X171043600Y-52933600D02*
X179933600Y-52933600D01*
X213588600Y-151041100D02*
X213588600Y-152946100D01*
X210314364Y-120109244D02*
X209319890Y-120109244D01*
X208508600Y-126276100D02*
X208508600Y-120920534D01*
X208616691Y-120812443D02*
X209319890Y-120109244D01*
X211231744Y-120109244D02*
X210314364Y-120109244D01*
X211366100Y-120243600D02*
X211231744Y-120109244D01*
X208508600Y-120920534D02*
X208616691Y-120812443D01*
X218033600Y-73888600D02*
X221526100Y-73888600D01*
X159613600Y-45313600D02*
X160566100Y-46266100D01*
X159613600Y-43586400D02*
X159613600Y-45313600D01*
X161696400Y-41503600D02*
X159613600Y-43586400D01*
X175806100Y-41821100D02*
X175488600Y-41503600D01*
X175488600Y-41503600D02*
X161696400Y-41503600D01*
X110744000Y-46228000D02*
X110664610Y-46228000D01*
X111998110Y-47482110D02*
X110744000Y-46228000D01*
X126492000Y-61722000D02*
X112252110Y-47482110D01*
X112252110Y-47482110D02*
X111998110Y-47482110D01*
X93891100Y-44996100D02*
X91668600Y-44996100D01*
X95796100Y-43091100D02*
X93891100Y-44996100D01*
X105321100Y-43091100D02*
X95796100Y-43091100D01*
X110744000Y-46228000D02*
X108458000Y-46228000D01*
X108458000Y-46228000D02*
X105321100Y-43091100D01*
X110744000Y-46228000D02*
X148336000Y-46228000D01*
G04 #@! TO.N,S$21*
X182473600Y-69126100D02*
X199936100Y-69126100D01*
X199936100Y-69126100D02*
X200253600Y-69126100D01*
X200253600Y-69126100D02*
X205333600Y-64046100D01*
X205333600Y-64046100D02*
X205333600Y-62458600D01*
D40*
X171361100Y-79921100D02*
X177076100Y-79921100D01*
X177076100Y-79921100D02*
X178981100Y-78016100D01*
D38*
X179832000Y-71767700D02*
X182473600Y-69126100D01*
X178981100Y-78016100D02*
X179832000Y-77165200D01*
X179832000Y-77165200D02*
X179832000Y-71767700D01*
D39*
G04 #@! TO.N,S$6*
X178028600Y-81826100D02*
X182156100Y-81826100D01*
X175806100Y-84048600D02*
X178028600Y-81826100D01*
D40*
X174853600Y-85001100D02*
X175806100Y-84048600D01*
X171361100Y-85001100D02*
X174853600Y-85001100D01*
G04 #@! TO.N,S$22*
X171361100Y-87541100D02*
X175806100Y-87541100D01*
D39*
X175806100Y-87541100D02*
X176441100Y-86906100D01*
X176441100Y-86906100D02*
X182156100Y-86906100D01*
G04 #@! TO.N,S$24*
X181838600Y-95478600D02*
X178346100Y-95478600D01*
X174218600Y-91351100D02*
X178346100Y-95478600D01*
X173901100Y-91351100D02*
X174218600Y-91351100D01*
D38*
G04 #@! TO.N,S$8*
X155486100Y-90398600D02*
X155486100Y-91986100D01*
X155486100Y-91986100D02*
X158661100Y-95161100D01*
X158661100Y-95161100D02*
X161836100Y-95161100D01*
X161836100Y-95161100D02*
X163741100Y-97066100D01*
X166281100Y-112941100D02*
X166281100Y-113576100D01*
X163741100Y-97066100D02*
X163741100Y-97701100D01*
X168478200Y-116433600D02*
X166281100Y-114236500D01*
X165646100Y-99606100D02*
X170091100Y-99606100D01*
X170091100Y-99606100D02*
X177292000Y-106807000D01*
X163741100Y-97701100D02*
X165646100Y-99606100D01*
X177292000Y-106807000D02*
X177292000Y-111760000D01*
X166281100Y-114236500D02*
X166281100Y-113576100D01*
X177292000Y-111760000D02*
X172618400Y-116433600D01*
X172618400Y-116433600D02*
X168478200Y-116433600D01*
G04 #@! TO.N,S$32*
X196656100Y-79328600D02*
X193906100Y-82078600D01*
X193906100Y-82078600D02*
X193906100Y-90378600D01*
G04 #@! TO.N,S$56*
X191356100Y-90378600D02*
X193856100Y-90378600D01*
D39*
G04 #@! TO.N,S$84*
X188856100Y-82178600D02*
X188856100Y-82228600D01*
X188856100Y-82228600D02*
X188856100Y-91328600D01*
X188856100Y-91328600D02*
X190506100Y-92978600D01*
X190506100Y-92978600D02*
X191356100Y-92978600D01*
G04 #@! TO.N,S$63*
X172631100Y-126911100D02*
X172631100Y-128816100D01*
X172631100Y-128816100D02*
X172313600Y-129133600D01*
D38*
G04 #@! TO.N,S$89*
X171361100Y-105956100D02*
X171996100Y-106591100D01*
X171996100Y-106591100D02*
X171996100Y-109766100D01*
G04 #@! TO.N,S$44*
X80238600Y-62776100D02*
X80238600Y-61188600D01*
X80238600Y-61188600D02*
X80238600Y-59601100D01*
X80238600Y-59601100D02*
X85318600Y-54521100D01*
X85318600Y-54521100D02*
X85318600Y-50393600D01*
X85318600Y-50393600D02*
X86906100Y-48806100D01*
X86906100Y-48806100D02*
X92303600Y-48806100D01*
X92303600Y-48806100D02*
X93573600Y-50076100D01*
D39*
X112941100Y-67221100D02*
X112941100Y-66903600D01*
X112941100Y-66903600D02*
X112623600Y-66586100D01*
X93573600Y-53251100D02*
X93573600Y-51028600D01*
D38*
X112941100Y-66586100D02*
X112941100Y-67221100D01*
X112306100Y-65951100D02*
X112941100Y-66586100D01*
X93573600Y-50076100D02*
X93573600Y-51028600D01*
D39*
X112306100Y-65316100D02*
X112306100Y-65951100D01*
X110083600Y-63093600D02*
X112306100Y-65316100D01*
X110083600Y-55791100D02*
X110083600Y-63093600D01*
X103416100Y-49123600D02*
X110083600Y-55791100D01*
X93573600Y-51028600D02*
X95478600Y-49123600D01*
X95478600Y-49123600D02*
X103416100Y-49123600D01*
G04 #@! TO.N,S$105*
X78333600Y-70396100D02*
X80238600Y-70396100D01*
X80238600Y-70396100D02*
X82143600Y-70396100D01*
X102146100Y-79921100D02*
X93256100Y-79921100D01*
X104368600Y-77698600D02*
X102146100Y-79921100D01*
X104686100Y-77698600D02*
X104368600Y-77698600D01*
X111671100Y-97383600D02*
X105638600Y-97383600D01*
X112941100Y-98653600D02*
X111671100Y-97383600D01*
X112941100Y-98971100D02*
X112941100Y-98653600D01*
X85001100Y-73253600D02*
X85001100Y-79921100D01*
X82143600Y-70396100D02*
X85001100Y-73253600D01*
G04 #@! TD*
M02*
